<svg width="40" height="40" viewBox="0 0 40 40" fill="none" xmlns="http://www.w3.org/2000/svg">
<path d="M10.1961 25.6543C10.1072 26.4845 10.0669 27.3193 10.0753 28.1543C10.0753 28.4668 10.1503 28.7709 10.1544 29.0834C10.1509 30.1896 10.2038 31.2952 10.3127 32.3959C10.3777 32.875 10.4936 33.3457 10.6586 33.8001C10.7377 34.0918 10.8461 34.3751 10.9336 34.6334C11.018 34.8786 11.0712 35.1333 11.0919 35.3918C11.019 35.5388 10.9135 35.6674 10.7836 35.7677C10.6537 35.868 10.5026 35.9375 10.3419 35.9709C10.0936 36.029 9.83409 36.0164 9.59258 35.9347C9.35107 35.853 9.13723 35.7053 8.97525 35.5084C8.79225 35.1863 8.62808 34.8538 8.48358 34.5126C8.37375 34.1811 8.29152 33.841 8.23775 33.4959C8.12124 32.8192 8.07516 32.1322 8.10025 31.4459C8.05835 30.625 7.97072 29.8071 7.83775 28.9959C7.76692 28.0918 7.74608 27.1834 7.76275 26.2668V25.8501L7.78358 25.3959C7.79335 24.9954 7.82954 24.5959 7.89192 24.2001C7.95444 23.7945 8.09601 23.4052 8.30858 23.0543C8.47675 22.7806 8.74383 22.5821 9.05442 22.5001C9.3677 22.4388 9.69065 22.4473 10.0002 22.5251C10.4168 22.6156 10.821 22.7555 11.2044 22.9418C11.4086 23.0459 11.6211 23.1668 11.8252 23.2876C11.8788 23.3175 11.9303 23.3509 11.9794 23.3876L12.0961 23.4543L12.3127 23.5834C12.438 23.6583 12.5529 23.7494 12.6544 23.8543C13.0211 24.2709 13.0044 24.4918 12.7419 24.9543C12.6836 25.0626 12.6336 25.1709 12.5753 25.2709C12.4628 25.4318 12.3019 25.5525 12.116 25.6154C11.9301 25.6784 11.729 25.6803 11.5419 25.6209L11.0878 25.5251L10.8627 25.4834C10.7964 25.4645 10.731 25.4423 10.6669 25.4168L10.4794 25.3418C10.4461 25.3418 10.4461 25.3418 10.4294 25.3418C10.4096 25.3513 10.3924 25.3656 10.3794 25.3834C10.3294 25.4376 10.3502 25.4751 10.3502 25.4751C10.3425 25.4675 10.332 25.4632 10.3211 25.4632C10.3102 25.4632 10.2997 25.4675 10.2919 25.4751V25.5293V25.6418L10.1961 25.6543Z" fill="#000091"/>
<path d="M16.3209 26.85C16.2001 26.925 16.0834 26.9875 15.9292 27.0709C15.7501 27.1593 15.5665 27.2386 15.3792 27.3084C15.0073 27.4395 14.6153 27.5044 14.2209 27.5C13.8296 27.4882 13.4462 27.387 13.1001 27.2042C12.9242 27.1164 12.7556 27.0147 12.5959 26.9C12.5131 26.8519 12.435 26.7961 12.3626 26.7334L12.2043 26.6084C11.4501 25.9917 10.8543 25.3959 10.2293 24.7917C10.0733 24.671 9.93327 24.531 9.81258 24.375L9.62925 24.1709C9.55842 24.1084 9.49175 24 9.38758 23.9834C9.28342 23.9667 9.26258 24.1042 9.24592 24.1875C9.24592 24.5542 9.29175 24.375 9.42508 26.0125C9.57092 27.7167 9.65842 29.425 9.84175 31.1167C9.92508 31.95 10.0168 32.8042 10.1418 33.6167L10.2459 34.225L10.3043 34.5167L10.3584 34.7334C10.3664 34.8244 10.386 34.914 10.4168 35C10.4327 35.0429 10.4639 35.0785 10.5043 35.1C10.5486 35.1044 10.5932 35.1044 10.6376 35.1H10.7834H11.0001H11.6751C12.1293 35.1 12.5793 35.1 13.0334 35.0667C14.924 34.978 16.7992 34.6818 18.6251 34.1834L19.3918 33.9459C19.6459 33.8625 19.8918 33.7625 20.1418 33.6709C20.3901 33.5796 20.6335 33.4753 20.8709 33.3584L21.1126 33.2459L21.2501 33.1584L21.4251 33.0584C21.4751 33 21.3959 32.9334 21.3668 32.8834L21.2293 32.7375L21.0626 32.575C20.6001 32.1625 20.0917 31.7167 19.5834 31.25C19.0126 30.7334 19.2917 30.5417 20.0001 30.675C20.472 30.775 20.9296 30.9332 21.3626 31.1459C21.4959 31.2125 21.6334 31.2834 21.7793 31.3625L21.9918 31.4875L22.1126 31.5625L22.2959 31.7084C22.5543 31.9056 22.7942 32.1259 23.0126 32.3667C23.2037 32.5789 23.3283 32.8426 23.3709 33.125C23.3833 33.2261 23.3833 33.3282 23.3709 33.4292C23.3638 33.4831 23.3512 33.5362 23.3334 33.5875C23.3066 33.6318 23.2759 33.6737 23.2418 33.7125L22.8626 34.1959L22.2459 34.5834C22.1418 34.6417 22.0376 34.7167 21.9376 34.7667L21.6709 34.8917C21.4334 35.0042 21.1918 35.1292 20.9501 35.2334C20.4626 35.4334 19.9709 35.65 19.4751 35.7917C18.491 36.1168 17.4859 36.3744 16.4668 36.5625C15.4581 36.755 14.44 36.8941 13.4168 36.9792C12.9168 37.0167 12.3959 37.05 11.8793 37.0834C11.6209 37.0834 11.3584 37.0834 11.1001 37.0834H10.5501C10.3209 37.0834 10.0918 37.0834 9.86675 37.05C9.70568 37.0095 9.54927 36.9522 9.40008 36.8792C9.25307 36.7941 9.1231 36.6825 9.01675 36.55C8.79997 36.2704 8.63488 35.9544 8.52925 35.6167L8.45008 35.3584C8.43998 35.3174 8.42745 35.277 8.41258 35.2375L8.39175 35.1542L8.31258 34.825L8.18758 34.1917C7.91675 32.6209 7.70842 31.0834 7.50008 29.525C7.39175 28.7459 7.27092 27.9709 7.17925 27.1917L6.90842 24.7542L6.78342 23.6875C6.7277 23.3517 6.70537 23.0111 6.71675 22.6709C6.71949 22.3907 6.7502 22.1116 6.80842 21.8375C6.85535 21.5998 6.93529 21.3698 7.04592 21.1542C7.146 20.9396 7.28762 20.747 7.46258 20.5875C7.65883 20.4129 7.9124 20.3165 8.17508 20.3167C8.64029 20.371 9.08664 20.5321 9.47925 20.7875C10.0054 21.185 10.5038 21.618 10.9709 22.0834L12.1376 23.175C12.4459 23.4625 12.7501 23.75 13.0584 24.0084C13.214 24.1445 13.3681 24.2834 13.5209 24.425C13.5959 24.4917 13.6709 24.55 13.7459 24.6084L13.9126 24.7375C14.0016 24.8178 14.1089 24.875 14.2251 24.9042C14.3468 24.9167 14.4698 24.8995 14.5834 24.8542C14.6463 24.8304 14.7075 24.8026 14.7667 24.7709C14.8501 24.7334 14.9418 24.6667 15.0334 24.6125C15.2237 24.4831 15.4073 24.344 15.5834 24.1959C16.3385 23.5436 17.0356 22.827 17.6668 22.0542C18.6584 20.8625 19.5959 19.5959 20.4959 18.3042C21.3959 17.0125 22.2668 15.6917 23.0751 14.3459C24.3251 12.2625 25.3793 10.0834 26.4834 7.93337C26.7251 7.46254 26.9417 6.98754 27.1959 6.51254C28.1334 4.76254 28.5793 4.2917 29.3668 4.22087C29.5412 4.18716 29.7183 4.16904 29.8959 4.16671C30.4376 4.22087 30.4376 5.15837 29.8959 6.53754C28.1789 10.7653 26.0476 14.8128 23.5334 18.6209C22.5809 20.1074 21.5489 21.5415 20.4418 22.9167C19.8793 23.6084 19.2959 24.2959 18.6501 24.9667C17.9677 25.704 17.1998 26.3572 16.3626 26.9125L16.3209 26.85Z" fill="#000091"/>
<path d="M23.8875 21.925C24.6709 21.15 25.4417 20.3667 26.1709 19.5458C26.4334 19.25 26.6667 18.925 26.925 18.6208C27.8584 17.5625 28.75 16.4625 29.5834 15.3333C29.955 14.8238 30.2999 14.2953 30.6167 13.75C30.9926 13.0319 31.41 12.3363 31.8667 11.6667C32.0209 11.4625 32.1917 11.5875 32.2834 11.8792C32.4063 12.2712 32.3901 12.6936 32.2375 13.075C31.6039 14.6348 30.763 16.1022 29.7375 17.4375C29.0792 18.2125 28.5125 19.1042 27.8625 19.9042C27.1375 20.775 26.3875 21.625 25.6167 22.4458L24.1667 23.975C23.4459 24.7375 22.6959 25.475 22.0084 26.25C21.475 26.85 21.025 27.5 20.5375 28.15C20.4334 28.2875 20.3417 28.4375 20.225 28.5667C19.8084 29.0667 19.575 29.1375 19.125 28.9083C19.025 28.8542 18.9167 28.8125 18.8209 28.75C18.5042 28.5375 18.4667 28.1333 18.7209 27.7125C19.526 26.4693 20.4664 25.3192 21.525 24.2833C22.2959 23.4792 23.0917 22.6958 23.8542 21.8917L23.8875 21.925Z" fill="#000091"/>
</svg>
