<svg width="132" height="132" viewBox="0 0 132 132" fill="none" xmlns="http://www.w3.org/2000/svg">
<path d="M27.1319 21.1604C27.1319 17.6494 24.2809 15.0318 20.7788 14.8073C17.0254 14.5649 14.4258 17.6494 14.4258 21.1604C14.4258 22.8453 15.0951 24.4613 16.2866 25.6527C17.478 26.8441 19.0939 27.5135 20.7788 27.5135C22.4638 27.5135 24.0797 26.8441 25.2711 25.6527C26.4626 24.4613 27.1319 22.8453 27.1319 21.1604Z" fill="#5770BE"/>
<g opacity="0.17">
<path d="M94.0565 45.8269C98.7297 44.5907 103.533 43.911 108.365 43.802C109.232 43.802 109.236 42.4551 108.365 42.4551C103.412 42.5673 98.4881 43.2635 93.6973 44.5294C93.53 44.5811 93.3893 44.696 93.3053 44.8496C93.2212 45.0033 93.2003 45.1837 93.2471 45.3525C93.2938 45.5213 93.4045 45.6653 93.5556 45.7538C93.7067 45.8424 93.8864 45.8686 94.0565 45.8269Z" fill="#5770BE"/>
</g>
<g opacity="0.17">
<path d="M49.0151 82.4097C50.6277 82.7067 52.1495 83.3739 53.4607 84.3586C54.7718 85.3433 55.8367 86.6188 56.5714 88.0848C56.8857 88.7089 57.8061 88.3721 57.8286 87.7436C58.1563 77.1611 62.9245 67.0231 70.2294 59.4578C72.4465 57.1712 74.8894 55.1148 77.5208 53.3203C78.2302 52.8309 77.5567 51.6636 76.8428 52.1574C67.6657 58.4431 60.6347 67.8403 57.8016 78.6472C57.0196 81.6183 56.5768 84.6683 56.4816 87.7391L57.7343 87.3978C56.9129 85.7807 55.7319 84.3734 54.2819 83.2837C52.8319 82.1941 51.1516 81.4512 49.3698 81.1121C48.5257 80.955 48.162 82.2525 49.0151 82.4097Z" fill="#5770BE"/>
</g>
<path d="M12.2392 104.859C13.3167 102.093 14.2551 99.2648 15.1935 96.4497C16.5404 92.337 17.8873 88.2019 19.0771 84.0399C20.3036 80.0477 21.2709 75.9804 21.9731 71.8635C22.422 69.1068 22.6914 66.3276 22.871 63.5484C22.9384 62.4754 22.9922 61.3978 23.0326 60.3248C23.0071 59.8014 23.1385 59.2824 23.4098 58.8342C23.7373 58.3828 24.1585 58.0076 24.6445 57.7342C25.7535 57.0517 27.0196 56.7015 28.2947 56.1537C29.8544 55.5526 31.273 54.6355 32.4612 53.4599C33.0606 52.8317 33.5123 52.0777 33.7834 51.2528C34.0545 50.4279 34.1381 49.553 34.0282 48.6917C33.7992 46.8015 32.8518 44.9337 31.1053 44.0313C30.1447 43.5712 29.0855 43.3547 28.0214 43.4009C26.9572 43.4471 25.9208 43.7546 25.0037 44.2962C24.3101 44.7476 23.7204 45.3413 23.2738 46.038C22.8271 46.7346 22.5337 47.5183 22.4131 48.337C22.2665 49.0278 22.2588 49.7409 22.3907 50.4346C22.5225 51.1284 22.7911 51.7889 23.1808 52.3778C24.411 54.1244 26.4539 55.0717 28.5326 55.3635C30.9616 55.7003 33.5388 55.2109 35.9094 54.6856C38.2811 54.1446 40.6136 53.4441 42.891 52.5888C46.0427 51.445 49.1132 50.0889 52.0816 48.5301C52.2388 48.4448 52.3959 48.3639 52.5306 48.2742L51.6057 47.3762C48.5616 51.9011 44.9033 55.9809 40.7359 59.4986C39.618 60.4595 38.491 61.3799 37.3192 62.2913C36.5191 62.8743 35.7517 63.5008 35.0204 64.168C34.4386 64.7237 33.9798 65.3951 33.6735 66.1391C33.3008 67.0819 33.2784 68.0607 33.0629 69.0395C32.6678 70.8354 31.0963 72.5011 29.5024 73.3631C29.336 73.4763 29.1453 73.5486 28.9457 73.5742C28.6718 73.5742 28.6314 73.5742 28.6539 73.3856C28.7387 73.0808 28.9257 72.8145 29.1837 72.6313C29.92 72.0431 31.0335 71.7962 31.9359 71.6076C33.7857 71.217 35.8331 71.675 37.638 72.115C39.4429 72.555 41.5665 73.2105 42.6755 74.8088C43.4128 75.9731 43.9712 77.2414 44.3322 78.5713C44.7812 79.9991 45.2616 81.4133 45.7465 82.8321C46.8645 86.1052 47.9061 89.4007 48.9163 92.7097L50.0433 92.0542L41.6788 83.6358C40.5339 82.4864 39.4339 81.2742 38.2396 80.1742C37.849 79.8105 37.3775 79.9452 36.8926 79.9856L33.5971 80.2595C31.4959 80.4301 29.3947 80.5872 27.3114 80.7803C27.1223 80.7894 26.9392 80.8493 26.7812 80.9536C26.6232 81.0578 26.4962 81.2027 26.4135 81.3729L25.5918 82.7199L18.3318 94.6493C16.4012 97.8235 14.3988 100.962 12.5355 104.172L12.4367 104.343C12.379 104.445 12.349 104.561 12.3497 104.679C12.3504 104.797 12.3818 104.912 12.4407 105.014C12.4996 105.116 12.584 105.201 12.6856 105.26C12.7873 105.32 12.9027 105.352 13.0204 105.353H33.1661C33.3444 105.352 33.515 105.28 33.641 105.154C33.7671 105.028 33.8384 104.858 33.8396 104.679C33.7543 101.986 33.7318 99.3276 33.8396 96.6562C33.871 95.8795 33.9114 95.1027 34.0102 94.3305C34.0371 94.1419 34.0775 93.8815 34.1314 93.6301C34.1584 93.5193 34.1898 93.4116 34.2257 93.3068C34.2616 93.1946 34.2616 93.2664 34.1853 93.3293C34.109 93.3921 34.0282 93.4056 34.1539 93.3697C34.2796 93.3337 34.338 93.3248 34.4322 93.3023C34.7293 93.252 35.0292 93.2205 35.3302 93.208C36.3404 93.1362 37.3596 93.1317 38.3698 93.1317C41.36 93.1317 44.3457 93.1946 47.3494 93.2125C50.582 93.2125 53.8147 93.1811 57.0429 93.1497C59.5078 93.1227 61.9816 93.0599 64.451 93.2439C64.7788 93.2439 65.111 93.2933 65.4298 93.3472L65.789 93.4191L65.9641 93.4684C66.0943 93.5088 66.0224 93.5044 66.0314 93.4954C66.0404 93.4864 66.1437 93.6256 66.0584 93.4954C66.0584 93.4954 65.8608 93.2619 65.9057 93.2619C65.9544 93.3944 65.9905 93.5312 66.0135 93.6705C66.087 93.9964 66.1425 94.3262 66.1796 94.6582C66.5747 97.9538 66.458 101.357 66.3278 104.67C66.3301 104.848 66.4018 105.018 66.5276 105.144C66.6534 105.27 66.8233 105.342 67.0012 105.344L73.7359 105.241C73.9138 105.238 74.0838 105.167 74.2096 105.041C74.3354 104.915 74.4071 104.745 74.4094 104.567C74.3585 99.0148 74.3061 93.4595 74.2522 87.9011C74.2118 83.8378 74.1535 79.7791 74.1086 75.7158C74.0727 72.3305 73.9739 68.9137 74.1939 65.5329C74.1939 65.277 74.2298 65.0211 74.2612 64.7652C74.2709 64.6242 74.2934 64.4845 74.3286 64.3476C74.3387 64.2847 74.3553 64.2231 74.378 64.1635C74.3241 64.2893 74.4094 64.1635 74.4184 64.1635C74.6545 64.0253 74.9104 63.9239 75.1771 63.8627C76.248 63.6451 77.3461 63.5951 78.4322 63.7146C78.6105 63.7134 78.7811 63.6421 78.9072 63.516C79.0332 63.39 79.1045 63.2193 79.1057 63.0411C78.8244 59.126 78.525 55.2124 78.2078 51.3003C77.8171 46.2986 77.5388 41.2566 76.8922 36.2774C76.6545 34.2838 76.2901 32.3072 75.8012 30.3599C75.6627 29.7115 75.4487 29.0817 75.1637 28.4831C75.1026 28.3838 75.0171 28.3017 74.9153 28.2448C74.8135 28.1879 74.6989 28.158 74.5822 28.158C74.4656 28.158 74.3509 28.1879 74.2492 28.2448C74.1474 28.3017 74.0619 28.3838 74.0008 28.4831C70.1486 33.6733 64.7339 38.3786 58.318 40.0084C58.0216 40.0848 57.7253 40.1521 57.42 40.206C57.2763 40.2329 56.971 40.2733 57.2494 40.2419L57.8331 41.2521C60.7918 36.4705 63.8404 31.7293 67.0237 27.0913C68.0204 25.6366 69.0351 24.1909 70.0902 22.7766C71.2979 21.2592 72.7464 19.9503 74.378 18.9019C74.8503 18.6123 75.3005 18.2882 75.7249 17.9321C76.5048 17.1801 77.1355 16.2874 77.5837 15.3011C78.4098 13.5321 78.522 11.6823 77.5837 9.93579C77.1617 9.13296 76.5518 8.44415 75.806 7.92814C75.0601 7.41214 74.2004 7.08427 73.3004 6.97252C72.318 6.84888 71.3206 7.00042 70.4193 7.41026C69.5179 7.8201 68.7481 8.47215 68.1955 9.29375C67.1988 10.8023 66.7318 12.9484 67.3469 14.6815C67.962 16.4146 69.4078 17.3754 71.051 17.8513C72.1243 18.1845 73.2457 18.3362 74.369 18.3003C75.4106 18.2329 76.4208 17.8513 77.4714 17.7884C81.9612 17.4562 86.2535 19.6113 89.8633 22.1211C94.4582 25.2812 98.1926 29.5372 100.729 34.504C100.769 34.5848 100.809 34.6656 100.845 34.7509L101.429 33.7362L101.155 33.7048L100.827 33.6644L100.621 33.6374C100.585 33.6374 100.491 33.6374 100.661 33.6374H100.518C99.6196 33.5177 98.7216 33.38 97.8237 33.2244C95.2617 32.8058 92.73 32.2194 90.2449 31.4688C88.2963 30.8672 85.8584 30.1219 84.5698 28.5191C84.3873 28.2861 84.2572 28.0166 84.1882 27.7288C84.1388 27.5403 84.1882 27.7827 84.1882 27.5897C84.1837 27.5089 84.1837 27.428 84.1882 27.3472C84.1882 27.2035 84.1657 27.3966 84.1882 27.226C84.2142 27.1104 84.2472 26.9964 84.2869 26.8848C84.3089 26.8198 84.3391 26.758 84.3767 26.7007C84.4261 26.6109 84.4755 26.5211 84.5339 26.4358C84.5851 26.3507 84.6405 26.2683 84.7 26.1889C84.5698 26.3595 84.7404 26.1529 84.7763 26.117L84.902 25.9958C84.7673 26.1035 84.9784 25.9284 84.902 25.9958C85.1265 25.8297 84.902 26.0586 85.0547 25.924C85.0958 25.9127 85.1393 25.9127 85.1804 25.924C85.3061 25.9689 85.0053 25.8791 85.158 25.924L85.3331 25.9778C85.1984 25.8925 85.369 25.9778 85.3331 25.9778L85.4678 26.0542L85.6024 26.1484C85.4184 26.0182 85.6384 26.1799 85.6743 26.2158C85.7771 26.3074 85.8745 26.4048 85.9661 26.5076C86.0155 26.557 86.0604 26.6109 86.1053 26.6648C86.1502 26.7186 86.3208 26.9297 86.222 26.804C86.45 27.1081 86.6613 27.4243 86.8551 27.7513C87.8958 29.5764 88.7646 31.4943 89.4502 33.4803C91.3629 38.6076 92.849 43.8966 94.2453 49.1946C94.82 51.3676 95.3707 53.5452 95.8976 55.7272C96.1669 56.8362 96.3465 58.008 96.6922 59.0946C96.6922 59.1439 96.7147 59.2023 96.7282 59.2562L97.8775 58.5917C96.381 56.8886 94.8948 55.1735 93.4192 53.4464C90.5727 50.1105 87.7486 46.7521 85.0457 43.2995C83.9412 41.8897 82.8502 40.4619 81.849 38.9758C81.4993 38.4641 81.1756 37.9351 80.8792 37.3909C80.8253 37.2921 80.7759 37.1888 80.722 37.0856C80.6682 36.9823 80.6816 36.9958 80.6637 36.9554C80.6861 37.0227 80.7176 37.0766 80.6637 36.9554C80.6412 36.888 80.6143 36.8027 80.5918 36.7264C80.52 36.5333 80.5918 36.7803 80.5918 36.6905C80.5918 36.6007 80.5918 36.7533 80.5918 36.7803C80.6233 36.7219 80.6682 36.6725 80.5514 36.8656C80.5963 36.7937 80.4167 37.0137 80.4841 36.9464C80.5514 36.8791 80.3404 37.0721 80.3853 37.0272C80.1563 37.0272 80.3269 37.0856 80.3853 37.0272C80.7535 37.0272 80.8343 37.0272 81.0229 37.4358C81.4359 38.3068 81.4 39.3709 81.5122 40.3093C81.8586 43.1599 81.9563 46.0352 81.8041 48.9027C81.5485 53.5103 80.9951 58.0964 80.1473 62.6325C80.1473 62.7133 80.1204 62.7986 80.1024 62.8795C80.0774 62.9792 80.0752 63.0833 80.0961 63.1841C80.1169 63.2848 80.1603 63.3795 80.2229 63.4611C80.2855 63.5427 80.3657 63.6091 80.4576 63.6553C80.5495 63.7015 80.6506 63.7264 80.7535 63.728L90.4245 63.764L105.775 63.8133H109.309L108.635 63.1399C108.851 66.7108 109.051 70.2816 109.237 73.8525C109.609 80.8117 109.955 87.7709 110.202 94.7391C110.319 98.048 110.427 101.353 110.427 104.661C110.429 104.839 110.501 105.009 110.626 105.135C110.752 105.261 110.922 105.333 111.1 105.335H124.524C124.703 105.335 124.874 105.264 125.001 105.138C125.127 105.011 125.198 104.84 125.198 104.661C125.198 104.483 125.127 104.312 125.001 104.185C124.874 104.059 124.703 103.988 124.524 103.988H111.1L111.773 104.661C111.773 98.268 111.464 91.8701 111.167 85.4856C110.886 79.3016 110.564 73.1222 110.202 66.9472C110.13 65.6751 110.057 64.406 109.982 63.1399C109.98 62.962 109.908 62.792 109.782 62.6662C109.656 62.5404 109.486 62.4687 109.309 62.4664L99.6331 62.4305L84.2375 62.408H80.7086L81.3551 63.2611C82.1554 59.0545 82.7057 54.8042 83.0029 50.5325C83.2955 47.4042 83.2715 44.2544 82.931 41.1309C82.7918 40.0758 82.7514 38.9489 82.482 37.8174C82.2127 36.686 81.611 35.5725 80.3449 35.6893C78.8049 35.8284 79.218 37.1978 79.7253 38.1362C80.4971 39.4866 81.3691 40.7773 82.3339 41.9974C85.0906 45.6835 88.0449 49.2215 91.0171 52.7325C92.9253 54.9774 94.7886 57.3121 96.8135 59.4672L96.9122 59.575C97.3612 60.1093 98.1739 59.5346 98.0347 58.9195C97.3657 55.9382 96.6249 52.975 95.8571 50.0207C94.4429 44.4937 92.9388 38.9982 90.9678 33.6733C90.2257 31.4819 89.2943 29.3592 88.1841 27.3293C87.5645 26.2562 86.5947 24.6354 85.1759 24.586C83.5506 24.5366 82.6077 26.7411 82.9041 28.097C83.3531 30.1668 85.8808 31.2668 87.6273 31.9762C91.8837 33.7003 96.6069 34.4905 101.133 35.0472L101.42 35.0831C101.981 35.146 102.188 34.477 101.999 34.0684C101.453 32.9165 100.813 31.8113 100.087 30.764C98.3866 28.2006 96.3731 25.8598 94.0927 23.7958C90.9812 20.9852 87.2682 18.5203 83.2588 17.2093C81.3537 16.5707 79.3406 16.3173 77.3367 16.464C76.6774 16.5191 76.0221 16.6151 75.3747 16.7513C75.1637 16.7917 74.9571 16.8411 74.7506 16.886L74.4633 16.9444H74.3645C74.2073 16.9758 74.5171 16.9444 74.3645 16.9444C72.0433 17.0342 68.7612 16.2754 68.4335 13.5366C68.2404 11.9158 68.9318 9.8864 70.3237 8.94803C71.0793 8.46661 71.9678 8.23645 72.8621 8.29048C73.7564 8.34451 74.6107 8.67996 75.3029 9.24885C75.9211 9.75759 76.387 10.4271 76.6492 11.1836C76.9115 11.9401 76.9598 12.7544 76.789 13.5366C76.3906 15.129 75.4349 16.5259 74.0951 17.4742C72.563 18.4429 71.1535 19.5931 69.8971 20.8999C68.784 22.2101 67.7553 23.5898 66.8171 25.0305C63.3376 30.0052 60.06 35.1235 56.8543 40.2958L56.6702 40.5966C56.6116 40.699 56.5807 40.815 56.5806 40.933C56.5806 41.051 56.6113 41.167 56.6698 41.2695C56.7283 41.372 56.8125 41.4574 56.9142 41.5174C57.0158 41.5773 57.1314 41.6097 57.2494 41.6113C58.5657 41.4191 59.8524 41.0615 61.0792 40.5472C64.2337 39.2804 67.1444 37.4756 69.6816 35.2133C71.7213 33.3986 73.5579 31.3678 75.1592 29.1566H73.9963L74.0278 29.2195C74.0278 29.2195 74.149 29.5158 74.0278 29.1791C74.0278 29.2284 74.0682 29.2778 74.0861 29.3317C74.2118 29.6864 74.3286 30.0411 74.4318 30.4048C74.8952 32.177 75.2476 33.9764 75.4869 35.7925C75.5139 35.9631 75.5363 36.1337 75.5633 36.3089C75.5318 36.0844 75.5633 36.3582 75.5633 36.3986C75.5633 36.5603 75.6037 36.7219 75.6216 36.8835C75.671 37.3325 75.7159 37.7501 75.7563 38.1811C75.8701 39.3125 75.9748 40.4469 76.0706 41.5844C76.569 47.2819 76.9955 52.9884 77.4175 58.695C77.5253 60.1362 77.6331 61.5819 77.7363 63.0231L78.4098 62.3497C77.4055 62.2657 76.395 62.2943 75.3971 62.435C74.3465 62.5876 73.1971 62.9648 72.9771 64.1321C72.8088 65.2479 72.7322 66.3756 72.7482 67.504C72.7033 69.3268 72.7078 71.1497 72.7167 72.968C72.7661 81.1395 72.9008 89.3109 72.9727 97.4778L73.04 104.567L73.7135 103.894L66.9788 103.997L67.6522 104.67C67.8214 101.548 67.7929 98.4188 67.5669 95.3003C67.533 94.5328 67.4171 93.7712 67.2212 93.0284C67.128 92.7696 66.9626 92.5428 66.7446 92.3749C66.5266 92.2071 66.2651 92.1051 65.991 92.0811C63.9526 91.6321 61.7302 91.7713 59.6604 91.7758C56.3604 91.7758 53.0604 91.8521 49.7829 91.8611C46.5053 91.8701 43.1918 91.8027 39.9053 91.7803C38.6931 91.7803 37.4808 91.7803 36.2686 91.8072C35.497 91.8024 34.727 91.8746 33.9698 92.0227C32.7171 92.3235 32.7216 93.8186 32.6229 94.8603C32.3819 98.1248 32.3429 101.401 32.5061 104.67L33.1796 103.997H13.0204L13.6041 105.012L18.3633 97.1905L25.9959 84.664L27.7424 81.795L27.1588 82.1317L36.4167 81.364L37.7143 81.2652L37.2339 81.0676L47.6412 91.5558L49.0959 93.0195C49.2025 93.1195 49.3385 93.1823 49.4837 93.1988C49.6289 93.2152 49.7755 93.1842 49.9017 93.1105C50.0279 93.0368 50.1269 92.9243 50.184 92.7898C50.241 92.6553 50.2531 92.5059 50.2184 92.364C49.2306 89.1268 48.2114 85.8986 47.1204 82.6974C46.6445 81.2921 46.1596 79.8958 45.7151 78.486C45.3485 77.1664 44.8413 75.8899 44.202 74.6786C43.0392 72.6403 40.938 71.6346 38.7559 71.015C37.6767 70.7162 36.5787 70.4897 35.4694 70.337C34.4855 70.1407 33.4794 70.0803 32.4792 70.1574C31.3163 70.2971 30.1828 70.6199 29.1208 71.1137C28.1555 71.5627 26.9837 72.6897 27.3249 73.8884C27.6122 74.9705 28.9547 75.0872 29.8212 74.7056C30.6585 74.3027 31.4184 73.7555 32.0661 73.0893C32.9056 72.3083 33.579 71.3661 34.0461 70.319C34.4951 69.2729 34.4502 68.1415 34.7645 67.0595C35.3302 65.1109 37.2653 64.0019 38.7649 62.8121C44.1167 58.5648 48.9792 53.7562 52.7551 48.0362C53.1412 47.4525 52.3959 46.8015 51.8571 47.1113C49.904 48.1803 47.8957 49.1455 45.8408 50.0027C41.7147 51.7672 37.3775 53.2489 32.9237 53.8999C30.6788 54.2276 28.2767 54.3758 26.189 53.2713C25.4285 52.8893 24.7733 52.3266 24.2808 51.6325C24.0702 51.3264 23.9068 50.9904 23.7959 50.6358C23.713 50.3942 23.6676 50.1413 23.6612 49.886C23.5654 48.5982 23.9457 47.3201 24.7298 46.2942C25.9106 44.8619 28.1061 44.4174 29.8392 44.9472C31.5722 45.477 32.5061 47.1203 32.6992 48.8129C32.7903 49.5732 32.6926 50.3442 32.4145 51.0577C32.1365 51.7711 31.6868 52.405 31.1053 52.9031C29.9429 53.8765 28.6175 54.6366 27.1902 55.148C25.9555 55.6464 24.6624 56.046 23.5669 56.8182C22.663 57.3939 22.0189 58.2989 21.771 59.3415C21.6534 60.3444 21.5964 61.3534 21.6004 62.3631C21.4612 64.8774 21.2457 67.3917 20.909 69.888C20.3147 73.9866 19.4294 78.0376 18.26 82.0105C16.2531 89.1313 13.9947 96.2162 11.4445 103.162C11.2784 103.611 11.1167 104.06 10.9416 104.486C10.6273 105.295 11.9294 105.645 12.2437 104.846L12.2392 104.859Z" fill="#112CA4"/>
<g opacity="0.17">
<path d="M83.8559 49.3557C84.2599 49.1671 84.6685 48.992 85.0771 48.8169L85.4004 48.6778C85.1983 48.7631 85.4004 48.6778 85.4497 48.6778L85.6069 48.6104L86.204 48.359C86.3702 48.3075 86.5132 48.1995 86.6081 48.0537C86.6532 47.9756 86.6823 47.8894 86.6939 47.8C86.7054 47.7106 86.6992 47.6198 86.6755 47.5329C86.6269 47.3639 86.5163 47.2195 86.3657 47.1288C86.2888 47.0829 86.2033 47.0532 86.1145 47.0416C86.0257 47.0301 85.9354 47.0368 85.8493 47.0614C84.9514 47.4341 84.0534 47.8022 83.1555 48.2108C83.0082 48.3014 82.901 48.4448 82.856 48.6117C82.8109 48.7786 82.8313 48.9564 82.913 49.1088C83.0078 49.2589 83.156 49.3674 83.3276 49.4124C83.4993 49.4574 83.6817 49.4355 83.8379 49.3512L83.8559 49.3557Z" fill="#5770BE"/>
</g>
</svg>
