<svg width="180" height="180" viewBox="0 0 180 180" fill="none" xmlns="http://www.w3.org/2000/svg">
<path opacity="0.887" fill-rule="evenodd" clip-rule="evenodd" d="M133.687 57.9507C133.639 58.6505 133.795 59.2737 134.155 59.82C141.566 59.48 145.889 62.9851 147.123 70.3351C147.28 73.1639 147.086 75.9679 146.539 78.7471C147.382 78.817 148.161 79.0895 148.876 79.565C151.757 81.5339 154.444 83.7537 156.937 86.2245C157.18 86.9573 156.986 87.5415 156.353 87.977C155.654 88.1866 154.953 88.3815 154.25 88.5612C154.173 92.4167 154.093 96.2722 154.016 100.128C154.304 121.04 154.458 141.954 154.484 162.868C154.173 162.868 153.86 162.868 153.549 162.868C153.437 138.099 153.283 113.33 153.082 88.5612C150.82 88.5787 148.562 88.6565 146.305 88.7949C146.27 110.682 146.347 132.569 146.539 154.456C146.228 154.456 145.915 154.456 145.604 154.456C145.373 132.335 145.336 110.215 145.487 88.0939C148.002 87.8156 150.535 87.5819 153.082 87.3929C149.969 87.1204 146.854 87.0814 143.735 87.276C141.237 93.4014 138.394 99.3599 135.206 105.152C134.942 105.535 134.592 105.769 134.155 105.853C123.338 106.045 112.511 106.162 101.675 106.203C100.515 107.104 100.515 108.038 101.675 109.007C105.18 109.085 108.685 109.163 112.19 109.241C114.41 110.056 115.344 111.653 114.994 114.031C116.24 114.031 117.486 114.031 118.732 114.031C118.594 112.721 118.789 111.475 119.317 110.292C119.646 109.992 119.997 109.719 120.368 109.474C124.324 109.134 128.296 109.017 132.285 109.124C132.597 109.124 132.908 109.124 133.22 109.124C133.267 109.566 133.112 109.916 132.753 110.175C128.64 112.65 124.201 114.168 119.433 114.732C119.356 124.08 119.433 133.427 119.667 142.772C124.142 143.52 128.582 144.455 132.986 145.576C133.254 145.651 133.449 145.805 133.57 146.044C133.69 146.838 133.767 147.616 133.804 148.38C124.668 148.534 115.516 148.691 106.348 148.848C104.985 151.418 103.622 153.988 102.259 156.559C102.089 156.689 101.895 156.767 101.675 156.792C100.715 156.302 100.247 155.523 100.273 154.456C100.448 152.528 100.681 150.621 100.974 148.731C99.4179 148.614 97.86 148.574 96.3003 148.614C96.1655 147.544 96.3991 146.569 97.0013 145.693C98.3601 145.214 99.7621 144.943 101.207 144.875C101.393 142.697 101.432 140.515 101.324 138.332C100.788 137.562 100.165 136.861 99.4548 136.229C98.7928 136.891 98.1306 137.554 97.4686 138.216C97.0686 138.625 96.6013 138.781 96.0666 138.683C93.769 135.139 91.4711 131.595 89.1734 128.051C88.3042 132.826 87.3305 137.578 86.2526 142.305C86.0315 142.419 85.7979 142.496 85.5516 142.539C83.6068 142.244 81.6596 142.048 79.7099 141.954C79.097 143.363 78.5518 144.805 78.0742 146.277C78.4118 146.642 78.8011 146.955 79.2425 147.212C80.3408 150.219 80.6522 153.297 80.1772 156.442C71.6869 156.559 63.197 156.675 54.7074 156.792C54.7029 155.907 54.9366 155.089 55.4084 154.339C60.7173 152.25 65.8968 149.873 70.9473 147.212C71.2473 144.945 71.5978 142.686 71.9988 140.436C71.5315 139.968 71.0641 139.501 70.5968 139.033C70.7637 138.128 71.309 137.583 72.2325 137.398C73.8336 127.981 75.3914 118.557 76.9058 109.124C74.0724 105.894 73.4882 102.311 75.1533 98.3753C77.0802 96.4475 79.1442 94.695 81.3455 93.1177C86.0189 91.1706 90.6923 89.2232 95.3656 87.276C73.0111 87.0814 50.6568 87.1202 28.3029 87.3929C30.8511 87.5819 33.3824 87.8156 35.8971 88.0939C35.8812 110.217 35.7644 132.338 35.5466 154.456C34.7909 154.516 34.4792 154.166 34.6119 153.404C34.7898 131.87 34.9456 110.334 35.0793 88.7949C32.8225 88.6712 30.5636 88.5934 28.3029 88.5612C27.9281 113.327 27.6944 138.096 27.6019 162.868C27.2904 162.868 26.9787 162.868 26.6672 162.868C26.7504 138.485 26.9841 114.106 27.3682 89.7295C27.2904 89.34 27.2124 88.9507 27.1346 88.5612C25.6973 88.5843 24.6846 87.9614 24.0969 86.6918C24.6593 85.777 25.3603 84.9592 26.1999 84.2383C28.3146 82.5127 30.4956 80.877 32.7426 79.3313C33.4116 79.0044 34.1126 78.7707 34.8456 78.6303C36.5591 78.5525 38.2728 78.4744 39.9863 78.3966C36.6203 73.7836 33.0763 69.3048 29.3544 64.9607C27.0539 65.7288 25.1068 65.1836 23.5127 63.325C22.2546 60.2731 23.1503 58.1311 26.1999 56.8992C27.2904 56.7433 28.3807 56.7433 29.4712 56.8992C30.1559 57.2071 30.8569 57.363 31.5743 57.3665C37.8055 52.6931 44.0365 48.0198 50.2677 43.3464C50.6336 42.9529 50.8673 42.4856 50.9687 41.9444C50.3116 41.059 49.8053 40.0854 49.4499 39.0236C49.3368 38.4597 49.4148 37.9146 49.6835 37.3879C52.1606 34.7446 54.2249 35.0561 55.8757 38.3226C57.9182 38.2487 59.7876 38.7548 61.4838 39.8414C63.1935 41.2004 64.4787 42.8749 65.3393 44.8653C65.4951 45.1767 65.4951 45.4885 65.3393 45.7999C64.3268 46.5009 63.3141 47.2019 62.3016 47.903C62.3972 51.0355 60.9561 52.0482 57.9787 50.9406C57.0915 51.4003 56.2346 51.9066 55.4084 52.4595C55.0969 52.6153 54.7852 52.6153 54.4737 52.4595C51.9618 50.2777 50.6766 47.5127 50.6182 44.1643C44.2328 49.1084 37.7681 53.9377 31.2238 58.6517C29.0326 57.395 26.8906 57.434 24.7979 58.7685C23.1795 61.7272 24.0364 63.6356 27.3682 64.4934C27.8225 64.3324 28.2898 64.2156 28.7702 64.1429C28.0227 63.3096 27.3605 62.4137 26.7841 61.4557C26.224 59.7983 26.8081 58.9417 28.5366 58.8853C30.7821 59.2999 31.6778 60.6241 31.2238 62.8577C31.0174 63.4657 30.6669 63.9721 30.1722 64.3765C34.1004 68.849 37.7613 73.5223 41.1546 78.3966C46.6085 78.5913 52.0609 78.5523 57.5114 78.2798C55.6016 72.16 53.966 65.9678 52.6044 59.7032C52.6182 59.3676 52.696 59.0562 52.838 58.7685C61.7943 58.8267 70.7515 59.0604 79.7099 59.4695C81.4565 64.3915 82.8585 69.4154 83.9159 74.5411C88.2032 73.9434 92.4873 73.3202 96.7676 72.6718C97.199 69.4214 97.7444 66.1889 98.4033 62.9745C97.9091 62.5182 97.4418 62.0121 97.0013 61.4557C97.6864 59.5172 98.3484 57.57 98.9875 55.614C99.1504 55.127 99.423 54.7375 99.8053 54.4457C100.348 54.0741 100.581 53.529 100.506 52.81C100.989 50.5443 101.729 48.3635 102.726 46.2673C104.342 44.4262 106.328 43.141 108.685 42.4118C107.082 42.5816 105.875 41.9975 105.063 40.6592C103.501 36.3399 102.917 31.9002 103.31 27.3402C101.699 26.7878 100.881 25.6975 100.857 24.0688C102.682 22.1663 104.59 20.3357 106.582 18.5776C110.364 16.6583 114.18 16.5802 118.031 18.3439C122.113 21.4767 123.32 25.4881 121.653 30.3778C120.66 32.6005 119.375 34.6257 117.798 36.4532C118.314 37.8461 118.781 39.2481 119.2 40.6592C126.141 41.0943 130.541 44.6772 132.402 51.408C132.957 53.5666 133.385 55.7474 133.687 57.9507ZM28.0692 59.82C29.814 59.9675 30.5541 60.9021 30.2891 62.624C30.1454 63.0016 29.9117 63.3131 29.5881 63.5587C28.8065 62.6168 28.1442 61.6043 27.6019 60.521C27.7052 60.2315 27.861 59.9978 28.0692 59.82ZM25.2652 86.6918C25.9662 86.6918 26.6672 86.6918 27.3682 86.6918C27.4049 87.0127 27.3659 87.3244 27.2514 87.6265C26.4686 87.5288 25.8064 87.2171 25.2652 86.6918ZM154.016 86.9255C154.561 86.9255 155.108 86.9255 155.652 86.9255C155.463 87.2744 155.15 87.4302 154.717 87.3929C154.36 87.3601 154.126 87.2043 154.016 86.9255ZM100.273 103.516C100.273 104.451 100.273 105.385 100.273 106.32C99.5546 108.132 100.1 109.339 101.908 109.942C105.336 110.02 108.763 110.098 112.19 110.175C113.67 110.906 114.293 112.113 114.059 113.797C109.894 113.389 105.883 112.376 102.025 110.76C101.553 110.884 101.359 111.195 101.441 111.694C105.5 113.293 109.706 114.306 114.059 114.732C114.098 120.496 114.059 126.26 113.942 132.023C113.9 132.66 113.783 133.284 113.592 133.893C110.849 132.226 107.889 131.213 104.712 130.855C104.751 130.15 104.712 129.449 104.596 128.752C100.58 122.121 96.3356 115.656 91.8606 109.358C91.7828 109.046 91.7048 108.734 91.6269 108.423C91.5388 106.96 91.5388 105.519 91.6269 104.1C94.5067 103.857 97.3885 103.662 100.273 103.516ZM121.303 110.059C124.419 110.02 127.535 110.059 130.649 110.175C127.143 112.11 123.404 113.318 119.433 113.797C119.133 112.033 119.756 110.787 121.303 110.059ZM113.592 135.295C113.862 136.889 113.9 138.524 113.709 140.202C112.884 142.017 111.482 143.109 109.503 143.473C110.851 140.776 112.214 138.05 113.592 135.295Z" fill="#1A3FB3"/>
<path fill-rule="evenodd" clip-rule="evenodd" d="M110.087 17.9928C113.778 17.2144 116.933 18.1491 119.55 20.7968C122.033 24.3371 122.189 27.9977 120.018 31.7792C119.252 33.0896 118.395 34.336 117.447 35.5179C117.353 35.1973 117.237 34.8858 117.097 34.5832C117.56 34.0028 118.066 33.4576 118.616 32.9475C119.812 31.3633 119.695 29.9222 118.265 28.6247C116.943 28.2232 115.892 28.5737 115.111 29.6762C113.788 28.8249 112.853 27.6566 112.307 26.1712C111.86 25.777 111.353 25.6601 110.788 25.8207C110.153 26.2665 109.452 26.578 108.685 26.7553C106.776 26.9867 104.906 26.8308 103.077 26.288C102.566 25.8169 102.099 25.3106 101.675 24.7692C103.359 22.9685 105.072 21.216 106.815 19.5116C107.901 18.9289 108.992 18.4225 110.087 17.9928Z" fill="#BFCEFB"/>
<path fill-rule="evenodd" clip-rule="evenodd" d="M110.788 26.6393C111.109 26.6026 111.42 26.6416 111.722 26.7561C112.43 28.1661 113.404 29.3735 114.643 30.378C114.721 31.079 114.799 31.78 114.877 32.481C115.344 33.1042 115.812 33.1042 116.279 32.481C116.496 31.602 116.379 30.7841 115.928 30.0275C115.989 29.7328 116.145 29.4992 116.396 29.3265C118.655 29.2038 119.239 30.1773 118.148 32.2473C117.463 32.9222 116.801 33.6232 116.162 34.3504C116.924 36.3639 117.664 38.3891 118.382 40.4257C118.788 42.2229 118.203 43.5859 116.629 44.5149C114.944 45.7527 113.074 46.22 111.021 45.9169C110.461 45.7461 109.955 45.4734 109.503 45.0991C109.533 43.8137 110.156 42.879 111.372 42.2951C111.479 41.5742 111.206 41.0291 110.554 40.6594C109.185 41.3569 107.783 41.4737 106.348 41.0099C104.398 36.8219 103.736 32.4212 104.362 27.8077C105.862 27.6177 107.381 27.5008 108.918 27.4572C109.614 27.2924 110.237 27.02 110.788 26.6393Z" fill="#FCFCFE"/>
<path fill-rule="evenodd" clip-rule="evenodd" d="M51.9033 36.4531C53.5733 36.6013 54.6639 37.4969 55.1747 39.1403C55.1412 39.6429 54.9076 40.0325 54.4737 40.3086C53.6352 40.8641 52.8174 41.4482 52.0201 42.0612C51.746 41.1646 51.2787 40.3855 50.6181 39.7245C50.326 39.1223 50.248 38.4994 50.3845 37.8551C50.8665 37.3331 51.3726 36.8658 51.9033 36.4531Z" fill="#F9F9FD"/>
<path fill-rule="evenodd" clip-rule="evenodd" d="M56.5768 39.2568C59.11 39.2966 61.1742 40.3093 62.769 42.2945C63.3725 43.1117 63.9177 43.9685 64.4046 44.8649C64.5797 45.1301 64.5409 45.3638 64.2878 45.5659C63.2828 46.1428 62.3093 46.766 61.367 47.4352C61.652 48.5017 61.4574 49.4754 60.7828 50.3561C60.0432 50.8538 59.3422 50.8148 58.6798 50.2392C59.5226 49.5649 60.0678 48.7082 60.3154 47.6689C58.938 47.8117 57.8477 48.4348 57.0441 49.5382C57.0693 49.7583 57.1471 49.953 57.2778 50.1224C56.5387 50.6869 55.7599 51.1931 54.9411 51.6412C52.5144 49.4653 51.3851 46.7394 51.5529 43.4629C53.426 42.2433 55.1004 40.8413 56.5768 39.2568Z" fill="#FAFBFD"/>
<path fill-rule="evenodd" clip-rule="evenodd" d="M119.433 41.5938C123.872 41.612 127.261 43.4813 129.598 47.2018C131.966 51.3996 133.018 55.9171 132.752 60.7545C132.729 62.951 132.573 65.1318 132.285 67.2972C129.787 67.6038 127.295 67.565 124.808 67.1804C124.596 66.7834 124.518 66.3549 124.574 65.8952C126.662 66.2446 128.765 66.4782 130.883 66.5962C130.883 66.3626 130.883 66.1289 130.883 65.8952C128.858 65.6616 126.833 65.4279 124.808 65.1942C124.828 62.4535 124.633 59.7273 124.224 57.0158C124.127 56.9091 124.01 56.831 123.873 56.7822C123.795 57.1717 123.717 57.561 123.639 57.9505C123.951 60.3659 124.029 62.7807 123.873 65.1942C123.155 65.3844 122.765 65.8518 122.705 66.5962C123.087 67.1014 123.476 67.6078 123.873 68.1151C123.644 69.7071 123.449 71.3037 123.289 72.9053C123.227 73.4079 122.993 73.7974 122.588 74.0736C116.578 75.1728 110.541 76.1075 104.479 76.8776C102.308 76.7641 100.205 76.3355 98.1696 75.5924C97.3908 75.4366 96.6118 75.4366 95.8329 75.5924C94.3136 76.4687 92.8338 77.4034 91.3932 78.3965C89.2082 78.5909 87.0274 78.5519 84.8505 78.2796C84.543 77.3615 84.3094 76.4269 84.1495 75.4756C88.5285 74.8108 92.8901 74.0708 97.2349 73.2558C97.9476 69.8774 98.6486 66.4892 99.338 63.0912C100.358 63.531 101.409 63.8425 102.492 64.0259C102.935 66.9126 103.402 69.7944 103.894 72.6716C104.242 72.5185 104.514 72.2849 104.712 71.9706C104.541 66.9925 104.347 62.0075 104.128 57.0158C103.406 55.7671 102.705 55.8452 102.025 57.2495C101.876 59.2135 101.993 61.1606 102.376 63.0912C101.483 63.0667 100.626 62.872 99.8053 62.507C99.5534 62.3495 99.3975 62.1159 99.338 61.806C100.138 58.1795 100.955 54.5577 101.791 50.9405C102.608 46.7753 105.061 44.2438 109.152 43.3463C108.437 44.4139 108.593 45.3486 109.619 46.1503C113.103 47.2163 116.102 46.3984 118.616 43.6968C119.022 43.0404 119.295 42.3394 119.433 41.5938Z" fill="#FCFDFE"/>
<path fill-rule="evenodd" clip-rule="evenodd" d="M57.9787 49.3047C58.557 49.3624 58.557 49.518 57.9787 49.772C57.7537 49.6622 57.7537 49.5063 57.9787 49.3047Z" fill="#95A8DD"/>
<path fill-rule="evenodd" clip-rule="evenodd" d="M100.506 52.8096C100.581 53.5286 100.348 54.0737 99.8053 54.4452C99.9976 53.8641 100.231 53.3187 100.506 52.8096Z" fill="#C8D1ED"/>
<path fill-rule="evenodd" clip-rule="evenodd" d="M102.843 57.0156C103.256 57.8437 103.451 58.7784 103.427 59.8196C103.621 60.9957 103.582 62.164 103.31 63.3247C102.63 61.2616 102.474 59.1586 102.843 57.0156Z" fill="#E1E5F5"/>
<path fill-rule="evenodd" clip-rule="evenodd" d="M99.5716 56.0811C99.7174 56.1785 99.7952 56.3344 99.8053 56.5484C99.3723 58.2801 98.944 59.9936 98.5201 61.6891C98.3039 61.5613 98.1093 61.4056 97.9359 61.2218C98.5764 59.534 99.1218 57.8202 99.5716 56.0811Z" fill="#CAD2EE"/>
<path opacity="0.875" fill-rule="evenodd" clip-rule="evenodd" d="M133.687 57.9502C133.983 58.5122 134.139 59.1354 134.154 59.8195C133.795 59.2732 133.639 58.65 133.687 57.9502Z" fill="#B5C1E7"/>
<path fill-rule="evenodd" clip-rule="evenodd" d="M53.5391 59.5859C62.11 59.7039 70.6777 59.9376 79.2425 60.2869C81.3631 67.2105 83.1934 74.2206 84.7337 81.3171C85.2399 81.6958 85.824 81.8907 86.4863 81.9012C89.2964 81.9613 92.1004 82.1171 94.8983 82.3686C91.1082 82.7235 87.3307 82.8403 83.5654 82.7191C81.733 75.3894 79.9027 68.0676 78.0742 60.7543C77.8405 60.7543 77.6069 60.7543 77.3732 60.7543C79.1262 68.1562 80.9177 75.5557 82.7476 82.9527C75.0276 82.7562 67.3166 82.5226 59.6144 82.2517C57.9951 77.008 56.4763 71.7114 55.0579 66.3623C54.4392 64.1214 53.9328 61.8628 53.5391 59.5859Z" fill="#C0CFFC"/>
<path fill-rule="evenodd" clip-rule="evenodd" d="M134.155 60.5208C141.075 60.2376 145.086 63.509 146.188 70.3349C146.399 73.1686 146.202 75.9726 145.604 78.7469C141.087 78.7469 136.569 78.7469 132.052 78.7469C132.489 75.1788 132.801 71.596 132.986 67.9982C133.765 67.8424 134.544 67.6867 135.323 67.5309C135.009 65.1827 134.619 62.8461 134.155 60.5208Z" fill="#FCFCFE"/>
<path fill-rule="evenodd" clip-rule="evenodd" d="M133.454 61.4551C133.909 63.2812 134.298 65.1505 134.622 67.0631C134.162 67.0073 133.734 67.0851 133.337 67.2968C133.191 65.3452 133.23 63.3978 133.454 61.4551Z" fill="#E5E9F6"/>
<path fill-rule="evenodd" clip-rule="evenodd" d="M103.544 63.5586C103.812 64.5274 103.851 65.5401 103.661 66.5963C103.358 65.5735 103.319 64.561 103.544 63.5586Z" fill="#A4B5E2"/>
<path fill-rule="evenodd" clip-rule="evenodd" d="M102.142 81.0835C99.6852 81.1601 97.2707 81.0821 94.8983 80.8498C96.1222 80.5028 97.3686 80.2301 98.637 80.032C98.7437 79.9352 98.8218 79.8184 98.8706 79.6814C96.7597 79.3188 94.8903 79.8249 93.2626 81.2003C92.7174 81.3561 92.1721 81.3561 91.6269 81.2003C93.3383 80.4229 94.974 79.5272 96.5339 78.5131C96.4561 78.2794 96.3003 78.1236 96.0666 78.0458C94.0543 79.1695 91.9512 79.9873 89.7576 80.4993C91.8204 79.0393 93.9234 77.6373 96.0666 76.2933C96.6898 76.1374 97.3128 76.1374 97.936 76.2933C100.17 77.0756 102.468 77.5819 104.829 77.8121C111.031 76.8239 117.223 75.7724 123.406 74.6576C123.523 74.5408 123.639 74.4239 123.756 74.3071C124.125 72.2148 124.397 70.1118 124.574 67.998C127.137 68.4651 129.707 68.543 132.285 68.2317C132.065 71.9924 131.637 75.7311 131 79.4478C130.919 79.9964 130.646 80.4247 130.182 80.733C120.835 80.836 111.488 80.9528 102.142 81.0835Z" fill="#FBFCFD"/>
<path fill-rule="evenodd" clip-rule="evenodd" d="M67.0918 68.6995C70.6917 68.6747 72.0546 70.3882 71.181 73.8402C69.4023 75.4221 67.6888 75.3443 66.0403 73.6065C64.6999 71.5622 65.0504 69.9265 67.0918 68.6995Z" fill="#2347B8"/>
<path fill-rule="evenodd" clip-rule="evenodd" d="M67.5592 69.4004C69.4002 69.4132 70.4908 70.3089 70.8305 72.0876C70.852 72.7451 70.6183 73.2903 70.1295 73.7232C68.6878 74.3957 67.4807 74.1231 66.5077 72.9054C66.1562 72.0785 66.0784 71.2218 66.274 70.3351C66.6245 69.875 67.0528 69.5635 67.5592 69.4004Z" fill="#BDCDFB"/>
<path opacity="0.999" fill-rule="evenodd" clip-rule="evenodd" d="M99.5716 82.2522C100.506 82.0964 101.441 81.9408 102.376 81.7849C111.645 81.7153 120.914 81.5984 130.182 81.4344C131.106 81.1472 131.651 80.524 131.818 79.5651C136.803 79.4092 141.788 79.4092 146.773 79.5651C150.107 81.4963 153.184 83.794 156.002 86.4583C156.126 86.7658 156.009 86.9216 155.652 86.9256C155.107 86.9256 154.561 86.9256 154.016 86.9256C153.991 86.7814 153.913 86.6646 153.783 86.5751C111.628 86.3807 69.4901 86.4197 27.3681 86.6919C26.6671 86.6919 25.9661 86.6919 25.2651 86.6919C25.9783 85.8605 26.7573 85.0427 27.6018 84.2384C29.5614 82.6682 31.5866 81.1884 33.6772 79.7987C36.0784 79.3877 38.4929 79.3487 40.9209 79.6819C41.0952 79.9707 41.173 80.2824 41.1546 80.6166C39.1455 81.1075 37.5488 82.1978 36.3644 83.8879C36.2263 84.1176 36.3043 84.2735 36.598 84.3553C37.4049 83.7828 38.1449 83.1208 38.8179 82.3691C39.7247 81.8767 40.6594 81.4482 41.6219 81.0839C42.2935 82.3104 42.9945 83.5176 43.7249 84.7058C46.5289 84.8616 49.3329 84.8616 52.137 84.7058C52.2437 84.609 52.3218 84.4922 52.3706 84.3553C51.0415 82.0123 49.0166 80.6491 46.2953 80.2661C44.8933 80.1883 43.4912 80.1102 42.0892 80.0324C41.9334 79.8765 41.7778 79.7209 41.6219 79.5651C47.0736 79.4482 52.5258 79.4092 57.9787 79.4482C58.0752 80.8152 58.5425 82.0223 59.3807 83.0701C67.252 83.225 75.1189 83.4977 82.9811 83.8879C88.5102 83.5194 94.0402 83.1689 99.5716 82.8364C99.8693 82.6081 99.8693 82.4132 99.5716 82.2522Z" fill="#F8F9FC"/>
<path fill-rule="evenodd" clip-rule="evenodd" d="M85.0842 79.6817C86.6 79.4121 88.1579 79.373 89.7576 79.5649C89.0486 79.8432 88.6591 80.3495 88.5892 81.0837C87.5648 81.1599 86.5524 81.0819 85.5516 80.8501C85.4282 80.4211 85.2726 80.0315 85.0842 79.6817Z" fill="#FAFBFD"/>
<path fill-rule="evenodd" clip-rule="evenodd" d="M50.9687 83.6537C48.6743 83.886 46.3376 83.9638 43.9586 83.8874C43.4981 82.9663 43.0308 82.0316 42.5566 81.0834C45.1331 80.6041 47.5478 81.0324 49.8003 82.3685C50.238 82.7667 50.6275 83.195 50.9687 83.6537Z" fill="#FAFAFD"/>
<path fill-rule="evenodd" clip-rule="evenodd" d="M94.8983 80.8496C97.2707 81.0819 99.6852 81.1599 102.142 81.0833C99.5345 81.3541 96.8863 81.3931 94.1973 81.2001C94.4372 81.0802 94.6709 80.9634 94.8983 80.8496Z" fill="#708AD1"/>
<path fill-rule="evenodd" clip-rule="evenodd" d="M102.376 81.785C101.441 81.9409 100.506 82.0965 99.5716 82.2523C99.1243 82.0923 98.657 81.9755 98.1696 81.9018C99.5695 81.7852 100.971 81.7462 102.376 81.785Z" fill="#7F97D6"/>
<path fill-rule="evenodd" clip-rule="evenodd" d="M50.9687 83.6543C51.0955 83.6683 51.1734 83.7461 51.2023 83.888C48.7504 84.1971 46.336 84.1971 43.9586 83.888C46.3376 83.9644 48.6743 83.8866 50.9687 83.6543Z" fill="#C1CDEB"/>
<path fill-rule="evenodd" clip-rule="evenodd" d="M126.911 87.159C125.775 87.0845 124.684 87.1623 123.64 87.3927C123.344 87.2548 123.032 87.138 122.705 87.0422C124.149 86.8508 125.551 86.8896 126.911 87.159Z" fill="#4468C4"/>
<path fill-rule="evenodd" clip-rule="evenodd" d="M97.9359 87.1592C105.569 87.1201 113.203 87.1592 120.835 87.276C122.691 87.8686 124.56 88.4137 126.443 88.9117C126.644 95.9671 123.217 100.251 116.162 101.763C107.818 102.168 99.4844 102.674 91.1595 103.282C90.9932 101.052 89.786 99.8838 87.5377 99.7772C86.0438 99.7242 85.4987 100.425 85.902 101.88C87.0269 103.569 88.6235 104.348 90.6922 104.217C90.8184 108.914 90.5457 113.587 89.8744 118.237C88.5111 126.026 87.1481 133.815 85.7852 141.604C83.7452 141.485 81.72 141.251 79.7098 140.903C79.2661 139.254 78.1755 138.28 76.4384 137.982C75.4379 137.712 74.4252 137.517 73.4008 137.398C74.7268 128.036 76.1679 118.69 77.7236 109.358C78.2886 105.714 78.6781 102.053 78.892 98.3752C79.2287 95.8584 80.5917 94.1837 82.9811 93.3514C89.0841 91.3086 95.3153 89.7898 101.675 88.7948C101.675 88.5612 101.675 88.3275 101.675 88.0938C98.1551 88.5161 94.6891 89.2171 91.2764 90.1969C91.1595 90.1578 91.0427 90.119 90.9259 90.08C93.2766 89.0776 95.6132 88.1041 97.9359 87.1592Z" fill="#F4B3B8"/>
<path fill-rule="evenodd" clip-rule="evenodd" d="M123.639 87.3929C124.684 87.1625 125.774 87.0846 126.911 87.1592C126.911 87.4707 126.911 87.7824 126.911 88.0939C125.803 87.9338 124.713 87.7001 123.639 87.3929Z" fill="#EDF0F9"/>
<path opacity="0.999" fill-rule="evenodd" clip-rule="evenodd" d="M100.273 106.32C100.273 105.385 100.273 104.451 100.273 103.516C105.764 103.114 111.294 102.763 116.863 102.464C122.833 101.091 126.299 97.391 127.261 91.3652C127.533 89.976 127.65 88.574 127.612 87.1592C132.675 87.1201 137.738 87.1592 142.8 87.276C140.36 93.4032 137.478 99.3228 134.155 105.035C123.255 105.336 112.351 105.491 101.441 105.502C101.015 105.735 100.626 106.008 100.273 106.32Z" fill="#FBFCFD"/>
<path fill-rule="evenodd" clip-rule="evenodd" d="M78.3079 96.5059C78.4348 96.5199 78.5126 96.5977 78.5415 96.7395C78.1013 100.404 77.5952 104.065 77.0227 107.722C74.7989 104.854 74.4874 101.816 76.088 98.6089C76.8035 97.8537 77.5435 97.1527 78.3079 96.5059Z" fill="#F0B1B8"/>
<path fill-rule="evenodd" clip-rule="evenodd" d="M86.7199 100.478C88.7364 100.238 89.9826 101.095 90.4586 103.048C88.5579 103.585 87.2337 102.962 86.4862 101.179C86.5294 100.926 86.6072 100.692 86.7199 100.478Z" fill="#EDAFB8"/>
<path opacity="0.996" fill-rule="evenodd" clip-rule="evenodd" d="M134.155 105.853C133.631 106.999 133.008 108.09 132.285 109.124C128.296 109.017 124.324 109.134 120.368 109.474C119.997 109.719 119.646 109.992 119.317 110.292C118.789 111.475 118.594 112.721 118.732 114.031C117.486 114.031 116.24 114.031 114.994 114.031C115.345 111.653 114.41 110.056 112.19 109.241C108.685 109.163 105.18 109.085 101.675 109.007C100.515 108.038 100.515 107.104 101.675 106.203C112.511 106.162 123.338 106.045 134.155 105.853Z" fill="#FDFDFE"/>
<path opacity="0.416" fill-rule="evenodd" clip-rule="evenodd" d="M91.627 108.423C91.7048 108.734 91.7828 109.046 91.8606 109.358C91.3889 109.115 91.3108 108.803 91.627 108.423Z" fill="#C499B7"/>
<path fill-rule="evenodd" clip-rule="evenodd" d="M91.3933 110.292C95.6122 116.31 99.6626 122.463 103.544 128.752C103.175 128.938 102.786 129.055 102.376 129.102C100.862 130.538 99.4214 132.057 98.0528 133.659C97.8785 134.427 98.151 135.012 98.8707 135.411C98.1271 136.194 97.3483 136.934 96.534 137.631C94.0307 133.987 91.6162 130.288 89.2903 126.532C90.3986 121.175 91.0996 115.762 91.3933 110.292Z" fill="#F3B2B8"/>
<path fill-rule="evenodd" clip-rule="evenodd" d="M132.753 146.978C132.753 147.211 132.753 147.445 132.753 147.679C124.145 147.756 115.577 147.679 107.049 147.445C107.503 146.422 108.048 145.447 108.685 144.524C110.78 144.274 112.532 143.379 113.942 141.837C114.176 141.292 114.41 140.746 114.643 140.201C114.703 131.71 114.82 123.219 114.994 114.731C116.24 114.731 117.486 114.731 118.732 114.731C118.732 124.078 118.732 133.425 118.732 142.772C117.134 142.664 115.576 142.858 114.059 143.356C113.727 144.361 114.117 144.984 115.227 145.225C116.46 145.543 117.706 145.62 118.966 145.459C119.382 144.959 119.537 144.375 119.433 143.706C123.903 144.417 128.343 145.274 132.753 146.277C132.753 146.51 132.753 146.744 132.753 146.978Z" fill="#F7F8FC"/>
<path fill-rule="evenodd" clip-rule="evenodd" d="M102.843 129.687C103.586 129.611 103.859 129.923 103.661 130.622C102.259 132.024 100.857 133.426 99.4548 134.828C98.7959 134.448 98.7181 133.981 99.2212 133.426C100.38 132.107 101.588 130.861 102.843 129.687Z" fill="#E9AEB9"/>
<path fill-rule="evenodd" clip-rule="evenodd" d="M104.479 131.089C104.435 131.485 104.241 131.797 103.894 132.024C104.556 134.36 103.855 136.152 101.791 137.398C101.165 136.81 100.58 136.187 100.039 135.529C101.458 133.953 102.938 132.473 104.479 131.089Z" fill="#F4F6FB"/>
<path fill-rule="evenodd" clip-rule="evenodd" d="M104.946 131.789C107.864 132.23 110.591 133.203 113.124 134.71C109.338 141.622 105.521 148.515 101.675 155.39C101.538 155.34 101.421 155.263 101.324 155.156C101.677 149.396 102.067 143.631 102.492 137.864C103.533 137.291 104.234 136.434 104.595 135.294C104.647 134.107 104.763 132.938 104.946 131.789Z" fill="#FBFCFE"/>
<path fill-rule="evenodd" clip-rule="evenodd" d="M73.1671 138.099C74.9031 138.279 76.5387 138.786 78.0742 139.617C78.3515 139.856 78.5852 140.128 78.7752 140.435C77.0617 140.397 75.3482 140.124 73.6345 139.617C73.3606 139.52 73.1269 139.364 72.9335 139.15C73.1391 138.833 73.2171 138.483 73.1671 138.099Z" fill="#ECAEB8"/>
<path fill-rule="evenodd" clip-rule="evenodd" d="M72.6998 140.201C74.7068 140.689 76.732 141.078 78.7752 141.37C78.4651 142.727 78.0368 144.052 77.49 145.342C77.3743 145.802 77.3353 146.27 77.3732 146.744C76.2693 147.181 75.1398 147.569 73.985 147.912C73.2384 147.812 72.5374 147.578 71.882 147.211C72.1668 144.886 72.4395 142.55 72.6998 140.201Z" fill="#F8F9FC"/>
<path fill-rule="evenodd" clip-rule="evenodd" d="M114.994 143.707C116.24 143.707 117.486 143.707 118.732 143.707C118.87 144.698 118.442 145.088 117.447 144.875C116.459 144.873 115.564 144.6 114.76 144.058C114.89 143.969 114.968 143.852 114.994 143.707Z" fill="#EEF1F9"/>
<path fill-rule="evenodd" clip-rule="evenodd" d="M100.974 147.679C99.6824 147.754 98.436 147.677 97.235 147.445C97.2906 146.826 97.6023 146.398 98.1697 146.16C99.1721 145.945 100.185 145.828 101.207 145.81C101.279 146.485 101.201 147.106 100.974 147.679Z" fill="#F5F6FB"/>
<path fill-rule="evenodd" clip-rule="evenodd" d="M76.9059 147.446C77.5753 147.341 78.1595 147.497 78.6584 147.913C79.3395 150.437 79.69 153.007 79.7099 155.624C71.7684 155.844 63.8237 155.923 55.8757 155.858C55.8283 155.416 55.9839 155.066 56.3431 154.806C61.517 152.764 66.5798 150.467 71.5315 147.913C73.4646 148.974 75.2562 148.817 76.9059 147.446Z" fill="#FAFAFD"/>
<path fill-rule="evenodd" clip-rule="evenodd" d="M97.2349 147.445C98.4359 147.677 99.6823 147.754 100.974 147.679C99.6854 147.987 98.3612 147.987 97.0012 147.679C97.0302 147.536 97.108 147.459 97.2349 147.445Z" fill="#8199D6"/>
<path fill-rule="evenodd" clip-rule="evenodd" d="M132.752 146.978C132.971 147.228 133.049 147.538 132.986 147.912C124.261 147.989 115.537 147.912 106.815 147.679C106.844 147.536 106.922 147.459 107.049 147.445C115.577 147.679 124.145 147.756 132.752 147.679C132.752 147.445 132.752 147.211 132.752 146.978Z" fill="#849CD7"/>
</svg>
