<svg width="180" height="180" viewBox="0 0 180 180" fill="none" xmlns="http://www.w3.org/2000/svg">
<g clip-path="url(#clip0_2591_14465)">
<g opacity="0.1">
<path d="M109.108 45.0859C153.061 45.0859 180.777 82.041 180.777 108.845C180.777 148.855 146.045 181.831 108.667 181.831C76.0469 181.831 40.5183 173.48 40.5183 120.276C40.5183 83.7798 68.2163 45.0859 109.108 45.0859Z" fill="#9A9AFF"/>
</g>
<path d="M81.5816 26.0698L85.7816 17.6024L78.349 13.9229L73.9163 22.8677L65.7979 19.4759L40.8245 70.0841L49.7143 75.0371L61.9408 70.1943L68.5163 67.5861L86.2714 28.029L81.5816 26.0698Z" fill="#FFF58C"/>
<path d="M44.7856 105.783C45.4325 107.53 46.3185 109.178 47.4182 110.681C48.9238 112.498 50.712 114.061 52.7141 115.31C54.7257 116.666 56.9244 117.723 59.2407 118.445C61.7325 119.141 64.278 119.629 66.8509 119.902L65.9325 118.983C66.3121 126.832 66.7529 134.681 67.157 142.53L68.0754 141.612C59.6754 140.816 51.2325 140.204 42.808 140.534C41.6754 140.577 40.5488 140.632 39.4162 140.688C39.1726 140.688 38.939 140.784 38.7668 140.956C38.5946 141.129 38.4978 141.362 38.4978 141.606L38.9876 148.524C38.9938 148.766 39.0925 148.996 39.2634 149.167C39.4343 149.338 39.6644 149.436 39.906 149.443C46.9407 149.828 53.9876 149.516 61.0651 149.528C68.9876 149.528 76.9162 149.669 84.8325 150.006C89.3835 150.202 93.9305 150.463 98.4733 150.79C98.7169 150.79 98.9505 150.693 99.1227 150.521C99.2949 150.348 99.3917 150.115 99.3917 149.871L99.2141 141.912C99.211 141.669 99.1132 141.438 98.9416 141.266C98.7701 141.095 98.5383 140.997 98.2958 140.994C91.1937 141.104 84.0896 141.204 76.9835 141.294C75.5692 141.294 74.1549 141.33 72.7407 141.33C72.4971 141.33 72.2635 141.427 72.0913 141.599C71.919 141.772 71.8223 142.005 71.8223 142.249C71.8223 142.492 71.919 142.726 72.0913 142.898C72.2635 143.07 72.4971 143.167 72.7407 143.167C80.3019 143.167 87.8692 142.983 95.4305 142.873L98.2958 142.83L97.3774 141.912L97.5549 149.871L98.4733 148.953C82.4019 147.796 66.2937 147.6 50.1856 147.728C46.757 147.759 43.3345 147.79 39.906 147.606L40.8243 148.524L40.3345 141.606L39.4162 142.524C46.2211 142.202 53.0393 142.284 59.8345 142.769C62.5774 142.959 65.3447 143.198 68.057 143.455C68.2996 143.452 68.5313 143.354 68.7029 143.182C68.8744 143.011 68.9722 142.779 68.9754 142.536C68.5896 134.688 68.1488 126.839 67.7509 118.99C67.7432 118.748 67.644 118.519 67.4734 118.349C67.3028 118.178 67.0736 118.079 66.8325 118.071C64.5245 117.808 62.2402 117.368 59.9998 116.755C57.8285 116.102 55.7654 115.133 53.8774 113.877C51.9986 112.726 50.3178 111.279 48.8998 109.592C47.909 108.284 47.1111 106.84 46.5305 105.306C46.0835 104.228 44.308 104.694 44.7611 105.796L44.7856 105.783Z" fill="#112CA4"/>
<path d="M76.3285 19.7383C77.553 18.1281 78.5877 16.3832 79.8183 14.773L78.7775 15.1955C80.9711 15.9103 83.1234 16.7463 85.2244 17.6996L84.6122 16.5669C82.5489 21.5751 80.1857 26.4363 77.9693 31.371C75.8816 36.0118 73.8857 40.6832 71.8469 45.3547C69.9673 49.7322 68.1061 54.122 66.1775 58.4812C65.6265 59.7057 65.0877 60.9669 64.4754 62.1547C63.4073 64.3542 62.224 66.4959 60.9305 68.571C60.1282 69.9146 59.026 71.0545 57.7101 71.9016C56.1571 72.7303 54.4193 73.1516 52.6591 73.1261C48.651 73.1991 44.7467 71.8499 41.6387 69.3179L41.7795 70.4322C45.3244 63.6485 48.5142 56.6934 51.851 49.8118C54.9795 43.3526 58.2489 36.9547 61.4693 30.5383C63.1918 27.1098 64.9244 23.6894 66.6673 20.2771L65.6265 20.6996C72.5265 22.922 79.1571 25.9343 85.7816 28.8669L85.4816 27.5506C80.8163 36.2873 77.0877 45.4587 73.3714 54.6057C72.3612 57.0975 71.3571 59.5894 70.3101 62.0812L71.4367 61.4689C70.8244 61.273 70.4142 61.7567 70.2122 62.2526C69.9428 62.8649 69.9183 62.9751 69.5999 63.6241C68.983 65.0722 68.1075 66.3958 67.0163 67.5302C66.4091 68.1616 65.6584 68.6372 64.8281 68.9165C63.9977 69.1957 63.1123 69.2704 62.2469 69.1343C60.4101 68.822 59.0571 68.0383 58.3959 66.2445C57.4836 63.7955 58.6836 61.3036 60.4408 59.5098C61.5258 58.3412 62.8821 57.458 64.3897 56.9383C65.7281 56.6163 67.1037 56.4762 68.4795 56.522C73.7709 56.3962 79.0307 57.3697 83.9265 59.3812C89.216 61.5718 93.8015 65.1745 97.1816 69.7955C100.847 74.6285 102.645 80.6224 102.245 86.6751C101.891 92.6618 99.8165 98.419 96.2693 103.255C92.5937 108.197 87.4512 111.852 81.5755 113.7C75.6509 115.62 69.3028 115.82 63.2693 114.275C60.1717 113.49 57.2256 112.197 54.551 110.449C53.1994 109.56 51.9652 108.505 50.8775 107.308C50.335 106.712 49.8416 106.073 49.402 105.398C49.2734 105.189 49.1326 104.987 48.9918 104.785C49.1448 105.012 48.9918 104.822 48.9367 104.687C48.3379 103.647 47.8867 102.528 47.5959 101.363L46.7081 102.526C52.1142 102.471 57.5265 102.428 62.9326 102.336L62.0448 101.663C62.2591 102.949 62.0448 104.271 62.253 105.563L63.1346 104.4L50.7979 104.338L31.1265 104.24H26.5959L27.5142 105.159V100.959L26.5959 101.877C32.4612 102.018 38.3203 102.208 44.1857 102.306C45.3673 102.306 45.3673 100.469 44.1857 100.469C38.3203 100.371 32.4612 100.181 26.5959 100.04C26.3533 100.044 26.1215 100.141 25.95 100.313C25.7784 100.484 25.6807 100.716 25.6775 100.959V105.14C25.6807 105.383 25.7784 105.615 25.95 105.786C26.1215 105.958 26.3533 106.056 26.5959 106.059L38.9326 106.12L58.604 106.212H63.1346C63.2751 106.209 63.4131 106.174 63.5384 106.11C63.6636 106.046 63.7729 105.955 63.8582 105.844C63.9434 105.732 64.0025 105.602 64.0309 105.465C64.0593 105.327 64.0564 105.185 64.0224 105.049C63.8081 103.763 64.0224 102.44 63.8203 101.149C63.7657 100.955 63.6495 100.785 63.4893 100.663C63.3291 100.541 63.1337 100.476 62.9326 100.475C57.5265 100.567 52.1142 100.61 46.7081 100.665C46.5672 100.667 46.4286 100.701 46.3027 100.764C46.1769 100.828 46.0671 100.919 45.9816 101.031C45.8961 101.143 45.8372 101.273 45.8092 101.411C45.7813 101.549 45.7851 101.692 45.8203 101.828C47.4673 107.834 52.4999 111.985 58.0652 114.391C64.1815 116.978 70.9157 117.739 77.455 116.583C84.0458 115.495 90.135 112.384 94.8795 107.681C99.3655 103.068 102.388 97.2316 103.567 90.9057C104.737 84.6547 104.063 78.0485 101.014 72.4036C97.9735 66.7824 93.364 62.1664 87.7469 59.1179C82.6612 56.4343 77.0412 54.918 71.2959 54.6791C68.4795 54.5383 65.1734 54.373 62.6081 55.6343C59.8101 56.9934 57.0428 59.8465 56.4367 62.9812C56.2197 64.0523 56.2562 65.1594 56.5432 66.2139C56.8302 67.2684 57.3598 68.2412 58.0897 69.0547C59.5591 70.6465 62.1918 71.2281 64.2673 70.922C68.0081 70.371 70.2428 66.8934 71.6142 63.6853C71.6877 63.52 71.755 63.3485 71.8285 63.1832C71.902 63.0179 71.8285 63.1098 71.8652 63.0914C72.1714 62.4792 71.6999 63.4098 71.0142 63.1955C71.2446 63.2543 71.4887 63.2238 71.6976 63.1103C71.9065 62.9968 72.0648 62.8085 72.1408 62.5832C75.8142 53.5832 79.3652 44.522 83.4979 35.7241C84.6428 33.2751 85.8367 30.8812 87.0979 28.5057C87.2108 28.2982 87.2395 28.0552 87.1779 27.8272C87.1163 27.5992 86.9693 27.4036 86.7673 27.2812C80.0326 24.2812 73.2244 21.1955 66.1775 18.9302C65.9823 18.877 65.7752 18.8889 65.5874 18.964C65.3996 19.0392 65.2413 19.1734 65.1367 19.3465C58.6142 32.0159 52.2652 44.7792 46.0897 57.6363C44.1918 61.6036 42.2632 65.5587 40.2244 69.4649C40.1238 69.6397 40.0831 69.8425 40.1085 70.0426C40.134 70.2427 40.2241 70.429 40.3652 70.573C43.1845 72.878 46.5927 74.3477 50.204 74.8159C53.4857 75.1955 57.1469 74.8159 59.7857 72.6608C62.1183 70.7689 63.4591 67.9281 64.8306 65.3138C65.553 63.9792 66.2755 62.6812 66.8999 61.2975C71.0203 52.273 74.755 43.0404 78.7897 33.9424C81.2938 28.3036 84.0061 22.7628 86.351 17.0567C86.5591 16.5608 86.1244 16.0955 85.7387 15.9241C83.6376 14.9728 81.4853 14.1388 79.2918 13.4261C79.0968 13.378 78.8916 13.3929 78.7056 13.4688C78.5197 13.5448 78.3627 13.6777 78.2571 13.8485C77.0326 15.4526 75.9979 17.2036 74.7673 18.8077C74.051 19.7445 75.6428 20.6445 76.353 19.7383H76.3285Z" fill="#112CA4"/>
<path d="M165.306 28.8427C165.306 24.0549 161.418 20.4855 156.643 20.1794C151.524 19.8488 147.979 24.0549 147.979 28.8427C147.979 31.1403 148.892 33.3438 150.517 34.9685C152.142 36.5932 154.345 37.5059 156.643 37.5059C158.94 37.5059 161.144 36.5932 162.769 34.9685C164.393 33.3438 165.306 31.1403 165.306 28.8427Z" fill="#5770BE"/>
</g>
<defs>
<clipPath id="clip0_2591_14465">
<rect width="180" height="180" fill="white"/>
</clipPath>
</defs>
</svg>
