<svg width="282" height="282" viewBox="0 0 282 282" fill="none" xmlns="http://www.w3.org/2000/svg">
<g clip-path="url(#clip0_2591_14494)">
<g opacity="0.1">
<path d="M170.936 70.6348C239.796 70.6348 283.218 128.531 283.218 170.524C283.218 233.207 228.804 284.868 170.245 284.868C119.14 284.868 63.4788 271.785 63.4788 188.432C63.4788 131.255 106.872 70.6348 170.936 70.6348Z" fill="#9A9AFF"/>
</g>
<path d="M123.198 75.1721H69.4833C68.8495 75.1658 68.2206 75.2851 67.6332 75.5233C67.0458 75.7615 66.5114 76.1138 66.061 76.5597C65.6106 77.0057 65.253 77.5365 65.009 78.1216C64.765 78.7066 64.6394 79.3342 64.6394 79.968V115.87C64.633 116.508 64.7539 117.141 64.9951 117.732C65.2362 118.322 65.5928 118.859 66.0438 119.31C66.4949 119.761 67.0315 120.117 67.622 120.358C68.2126 120.6 68.8454 120.721 69.4833 120.714H123.198C123.835 120.721 124.468 120.6 125.059 120.358C125.649 120.117 126.186 119.761 126.637 119.31C127.088 118.859 127.445 118.322 127.686 117.732C127.927 117.141 128.048 116.508 128.041 115.87V80.016C128.041 79.3821 127.916 78.7545 127.672 78.1695C127.428 77.5845 127.07 77.0537 126.62 76.6077C126.169 76.1617 125.635 75.8095 125.048 75.5713C124.46 75.3331 123.831 75.2137 123.198 75.2201" fill="#EE6A73"/>
<path d="M82.6623 75.8237C86.9211 75.9964 91.1799 76.2266 95.4387 76.2266C103.198 76.2266 110.949 75.7086 118.708 75.8429C120.343 75.7481 121.984 75.8317 123.6 76.0923C125.087 76.4568 125.087 77.7421 125.183 79.0658C125.253 80.0442 125.301 81.0225 125.327 82.0009C125.327 82.9601 125.202 83.9864 125.327 84.8784C125.327 85.0511 125.327 85.0127 125.327 85.0127L125.874 84.3221C126.133 84.2166 126.19 84.1878 126.037 84.2454C125.805 84.2893 125.58 84.3601 125.365 84.4564C124.512 84.6962 123.639 84.8976 122.775 85.0991C120.483 85.6458 118.181 86.1446 115.879 86.6433C110.834 87.7464 105.779 88.8782 100.666 89.6552L102.297 90.317C102.066 89.762 101.964 89.1618 101.999 88.5617C101.995 88.1817 101.841 87.8186 101.573 87.5498C101.304 87.2811 100.941 87.1279 100.561 87.1229L90.4125 87.286C90.1007 87.2947 89.7996 87.4013 89.5517 87.5907C89.3038 87.78 89.1218 88.0426 89.0313 88.3411C88.5901 89.7703 88.2928 91.2186 87.9474 92.715C87.5254 94.5182 90.2974 95.2856 90.7195 93.4823C91.0648 92.0244 91.3621 90.5376 91.8034 89.1084L90.4125 90.1635L100.522 90.0772L99.0836 88.6384C99.0499 89.7497 99.2869 90.8524 99.7742 91.8517C99.9417 92.1172 100.188 92.3238 100.479 92.4424C100.769 92.5611 101.09 92.5859 101.395 92.5135C106.306 91.7558 111.16 90.6815 116.013 89.636C118.555 89.0797 121.097 88.5329 123.619 87.9382C124.799 87.6601 127.13 87.4778 127.859 86.3364C128.2 85.5352 128.329 84.6599 128.233 83.7946C128.233 82.6244 128.233 81.4637 128.128 80.2935C127.993 77.7037 127.907 74.6919 125.097 73.5793C123.361 72.9078 121.26 73.0421 119.428 73.0037C117.366 73.0037 115.303 73.0037 113.251 73.0037C109.049 73.0613 104.858 73.2339 100.657 73.3299C94.6521 73.4546 88.6668 73.2244 82.6623 72.9846C80.8111 72.9174 80.8111 75.795 82.6623 75.8621V75.8237Z" fill="#112CA4"/>
<path d="M108.186 71.2676C108.081 67.757 108.484 63.9203 105.587 61.3305C104.195 60.2457 102.479 59.6582 100.714 59.6615C98.4793 59.5176 96.2252 59.5368 93.9999 59.4793C89.9713 59.3737 85.8373 59.3737 83.1228 62.8268C80.4083 66.2799 80.485 70.7017 81.2716 74.8166L82.6624 72.9942C79.2573 72.9942 75.8426 72.8886 72.4375 73.0805C69.9628 73.2244 67.1524 73.608 65.3299 75.4688C63.5075 77.3297 63.4116 79.8811 63.3444 82.2311C63.3444 84.0535 63.3444 85.8856 63.5075 87.708C63.5176 88.0195 63.6248 88.3199 63.8139 88.5675C64.0031 88.8152 64.2648 88.9975 64.5626 89.0893C72.5718 91.1707 80.5713 93.2521 88.5422 95.4391L87.6885 93.3193C86.595 95.0842 87.3432 97.3286 88.5997 98.7962C90.1536 100.599 92.753 100.993 95.0071 101.089C97.2611 101.185 99.6495 100.743 101.223 99.0744C101.953 98.3445 102.447 97.4111 102.638 96.3963C102.83 95.3815 102.711 94.3325 102.297 93.3864L101.06 95.5542C105.117 95.2376 109.145 94.7964 113.155 94.077C116.032 93.5495 118.91 92.974 121.787 92.4656C123.073 92.2354 124.358 91.986 125.624 91.8421C125.827 91.8398 126.029 91.8205 126.228 91.7846H126.401C126.085 91.3338 125.969 91.3338 126.037 91.7846C125.989 92.1218 125.989 92.4641 126.037 92.8013C126.219 99.5156 126.622 106.326 126.516 113.069C126.568 113.951 126.433 114.834 126.12 115.66C125.808 116.486 125.325 117.237 124.703 117.865C122.785 119.486 119.61 119.006 117.279 119.054C111.658 119.169 106.031 119.224 100.398 119.217C95.1989 119.217 89.9905 119.217 84.7822 119.217C81.9813 119.217 79.1901 119.217 76.3989 119.265C75.0305 119.265 73.6588 119.284 72.284 119.323C70.8932 119.323 69.2626 119.639 67.9101 119.265C65.4258 118.584 65.8862 115.198 65.8958 113.222C65.8958 110.796 65.8958 108.426 65.8958 105.952C65.8958 100.926 66.0109 95.9091 66.1836 90.8925C66.2507 89.0413 63.3732 89.0413 63.306 90.8925C63.143 95.8131 63.0183 100.734 63.0183 105.664C63.0183 107.928 63.0183 110.191 63.0183 112.465C63.0183 114.738 62.7497 117.433 63.9199 119.563C65.282 122.037 67.9773 122.335 70.5287 122.239C73.6556 122.124 76.7826 122.133 79.9095 122.114C85.7318 122.114 91.5444 122.114 97.3667 122.114C103.381 122.114 109.404 122.114 115.418 121.999C118.152 121.999 121.174 122.248 123.869 121.49C125.094 121.121 126.205 120.444 127.095 119.524C127.984 118.604 128.624 117.471 128.953 116.234C129.845 113.289 129.365 109.779 129.298 106.748C129.192 102.585 129.068 98.4317 128.953 94.2784C128.895 92.245 129.365 89.3674 126.679 88.9933C125.192 88.9467 123.705 89.118 122.267 89.5017C120.521 89.7895 118.785 90.1156 117.049 90.4609C111.739 91.5111 106.376 92.2669 100.983 92.7246C100.732 92.7318 100.487 92.8032 100.272 92.9319C100.057 93.0606 99.8782 93.2424 99.7531 93.4598C99.6281 93.6772 99.5608 93.923 99.5578 94.1738C99.5548 94.4246 99.6161 94.672 99.7358 94.8923C99.8497 95.3619 99.819 95.8549 99.6479 96.3068C99.4767 96.7586 99.173 97.1483 98.7767 97.4246C97.6317 98.1356 96.2767 98.4303 94.9399 98.2591C93.6156 98.2958 92.3072 97.9637 91.1607 97.2999C90.4893 96.8299 89.5877 95.6021 90.1056 94.7772C90.2143 94.5863 90.2782 94.3733 90.2924 94.1541C90.3066 93.9349 90.2708 93.7153 90.1876 93.512C90.1044 93.3087 89.9761 93.127 89.8124 92.9806C89.6486 92.8342 89.4537 92.727 89.2424 92.667C81.262 90.4801 73.2624 88.3986 65.2628 86.3172L66.3179 87.708C66.222 86.1733 66.1548 84.6482 66.1548 83.1135C66.1548 81.3486 65.9822 78.8931 67.2962 77.5023C68.783 75.9293 71.6222 75.9772 73.6077 75.9005C76.6003 75.7758 79.6026 75.9005 82.5952 75.9005C82.8153 75.8955 83.0315 75.8411 83.2277 75.7412C83.424 75.6414 83.5952 75.4987 83.7288 75.3236C83.8623 75.1486 83.9548 74.9458 83.9994 74.7302C84.0439 74.5145 84.0393 74.2917 83.986 74.078C83.3818 70.9607 83.1516 67.3158 85.2426 64.6684C87.3336 62.0211 91.1895 62.3664 94.326 62.4431L99.7071 62.5774C101.021 62.5774 102.585 62.6446 103.611 63.5366C105.74 65.455 105.165 68.8025 105.242 71.3252C105.242 73.1764 108.119 73.1764 108.119 71.3252L108.186 71.2676Z" fill="#112CA4"/>
<path d="M258.98 45.187C258.98 37.6862 252.889 32.0941 245.407 31.6146C237.388 31.0966 231.835 37.6862 231.835 45.187C231.835 48.7866 233.265 52.2388 235.81 54.7842C238.355 57.3295 241.808 58.7595 245.407 58.7595C249.007 58.7595 252.459 57.3295 255.004 54.7842C257.55 52.2388 258.98 48.7866 258.98 45.187Z" fill="#5770BE"/>
<path d="M37.2451 143.446C43.3742 150.246 50.3187 156.347 58.5102 160.519C67.5286 164.962 77.2784 167.731 87.2857 168.692C103.917 170.55 120.705 167.009 135.168 158.591C139.52 156.036 143.593 153.034 147.321 149.633C150.925 146.21 154.141 142.402 156.913 138.276C165.317 126.307 170.514 112.385 172.01 97.8366C173.766 78.7489 167.445 60.1407 155.915 45.0048C149.201 36.257 141.249 28.363 131.533 23.0587C124.315 19.2019 116.445 16.7171 108.321 15.7305C103.43 14.9961 98.4815 14.72 93.5395 14.9056C88.1361 15.2085 82.7764 16.0503 77.5404 17.4187C62.7803 21.0399 49.3996 28.8942 39.0425 40.0164C28.6853 51.1386 21.803 65.0443 19.2412 80.0246C16.1334 97.453 18.8479 115.514 27.9218 130.861C30.611 135.36 33.7336 139.584 37.2451 143.475C38.4824 144.856 40.5063 142.813 39.2785 141.441C32.5513 134.045 27.4303 125.335 24.2385 115.86C21.6478 107.852 20.5172 99.4437 20.9006 91.036C21.4724 76.8802 25.9074 63.1507 33.7249 51.3354C42.4747 38.3061 55.0824 28.3414 69.7806 22.8381C79.0079 19.3754 89.2424 17.1597 99.1604 17.7064C105.834 17.9593 112.455 19.0057 118.881 20.8238C127.716 23.5566 135.822 28.2411 142.602 34.5305C157.229 47.8536 167.905 66.4617 169.277 86.4319C170.293 101.318 166.399 116.167 159.205 129.202C154.467 137.835 148.395 145.681 140.501 151.589C129.188 160.053 115.688 165.099 101.597 166.131C91.6147 166.767 81.599 165.627 72.0155 162.764C63.5592 160.381 55.6795 156.295 48.8608 150.755C45.4385 147.891 42.2325 144.778 39.2689 141.441C38.0316 140.041 36.0077 142.074 37.2451 143.446Z" fill="#112CA4"/>
<path d="M113.913 140.242C102.837 144.423 90.6264 144.474 79.5164 140.386C69.4805 136.762 60.7066 130.313 54.2515 121.816C50.6901 117.131 48.1807 111.733 46.8945 105.99C45.3374 99.6538 44.8063 93.109 45.3215 86.6048C45.9477 78.5157 48.5854 70.7113 52.995 63.9009C58.8335 55.09 67.2329 48.2809 77.0609 44.3911C88.315 40.1782 100.64 39.7705 112.148 43.2305C123.361 46.7411 132.732 55.4025 138.899 65.2437C143.962 73.2578 146.821 82.4657 147.187 91.9378C147.343 95.8919 146.955 99.8486 146.036 103.697C144.856 108.493 142.448 112.752 139.964 116.963C138.554 119.361 136.78 121.673 136.281 124.464C135.794 127.087 136.228 129.797 137.509 132.137C138.174 133.282 139.008 134.32 139.983 135.216C141.058 136.252 142.544 137.451 143.091 138.899C143.472 140.403 143.723 141.937 143.839 143.484C144.14 145.211 144.46 146.931 144.798 148.645C145.937 154.116 147.479 159.496 149.412 164.74C150.314 167.119 151.215 169.843 152.932 171.78C157.009 176.413 161.421 180.797 165.718 185.209C174.639 194.398 183.655 203.52 193.036 212.239C197.122 216.075 201.716 219.912 207.27 221.293C209.812 221.952 212.481 221.937 215.016 221.251C217.55 220.565 219.862 219.231 221.725 217.38C223.514 215.476 224.79 213.15 225.434 210.618C226.078 208.087 226.069 205.433 225.408 202.906C224.056 197.151 220.142 192.355 216.104 188.201C206.148 177.957 195.453 168.481 185.314 158.419C181.737 154.87 178.303 151.225 174.869 147.542C173.473 146.284 171.879 145.266 170.15 144.53C167.647 143.271 165.065 142.178 162.419 141.259C159.382 140.197 156.289 139.307 153.153 138.593C151.561 138.228 149.962 137.908 148.357 137.633C146.707 137.355 144.971 137.269 143.35 136.885C140.473 136.223 138.401 133.873 135.811 132.674C134.548 132.087 133.168 131.798 131.775 131.83C130.383 131.862 129.017 132.213 127.783 132.857C126.411 133.566 125.202 134.612 123.888 135.437C122.574 136.262 121.452 136.895 120.195 137.537C118.159 138.556 116.068 139.462 113.932 140.252C112.215 140.914 112.973 143.695 114.69 143.034C116.886 142.189 119.064 141.307 121.174 140.261C122.453 139.622 123.732 138.915 125.01 138.142C126.44 137.259 127.754 136.099 129.25 135.341C130.409 134.751 131.727 134.55 133.01 134.765C134.478 135.159 135.845 135.862 137.019 136.828C138.212 137.648 139.469 138.37 140.779 138.986C142.102 139.528 143.499 139.867 144.923 139.993C151.391 140.871 157.735 142.496 163.829 144.837C166.274 145.77 168.638 146.903 170.898 148.223C171.516 148.563 172.106 148.951 172.663 149.383C173.248 149.959 173.766 150.621 174.312 151.225C183.712 161.623 194.311 170.821 204.335 180.595C208.507 184.672 212.862 188.662 216.68 193.065C220.344 197.304 223.701 202.781 222.943 208.632C222.627 211 221.599 213.216 219.996 214.987C218.393 216.758 216.29 218 213.965 218.55C208.373 219.845 203.05 216.852 198.839 213.447C193.698 209.265 189.046 204.402 184.317 199.769C179.77 195.293 175.262 190.775 170.792 186.216C165.619 180.94 160.503 175.604 155.445 170.207C155.292 170.054 155.158 169.891 155.004 169.737L154.918 169.641C154.678 169.382 154.985 169.766 154.841 169.555C154.106 168.439 153.494 167.245 153.019 165.996C151.08 161.227 149.528 156.31 148.376 151.292C147.57 147.999 146.902 144.683 146.371 141.345C146.282 139.908 145.958 138.496 145.412 137.163C144.576 135.772 143.528 134.519 142.305 133.451C140.3 131.533 138.899 129.394 138.909 126.507C138.919 123.62 140.588 121.452 141.998 119.083C144.587 114.738 147.187 110.277 148.53 105.357C149.538 101.554 150.044 97.6365 150.036 93.7027C150.004 84.3128 147.623 75.0801 143.11 66.8456C137.729 56.9468 129.145 47.7674 118.91 42.866C108.273 37.7248 95.5635 36.967 84.0629 39.3266C64.4188 43.4703 47.8537 59.4695 43.5566 79.1231C42.0635 86.2257 41.8556 93.5384 42.9427 100.714C43.5611 105.536 44.8257 110.253 46.7027 114.738C50.645 123.792 57.8964 131.351 66.0399 136.799C75.3261 143.09 86.2942 146.433 97.5107 146.391C103.38 146.283 109.186 145.157 114.67 143.062C116.387 142.372 115.649 139.59 113.913 140.242Z" fill="#112CA4"/>
</g>
<defs>
<clipPath id="clip0_2591_14494">
<rect width="282" height="282" fill="white"/>
</clipPath>
</defs>
</svg>
