<svg width="128" height="72" viewBox="0 0 128 72" fill="none" xmlns="http://www.w3.org/2000/svg">
<path d="M21.9869 37.2771L23.9976 30.0951H14.7329V20.9745H26.5116L29.8869 8.5498H40.0136L36.6382 20.9745H44.3949L47.7702 8.5498H57.8969L54.5216 20.9745H59.2616V30.0958H52.0076L49.9969 37.2778H59.2616V46.3991H47.4829L44.1076 58.8238H33.9809L37.3562 46.3991H29.5996L26.2242 58.8238H16.0976L19.4729 46.3991H14.7329V37.2771H21.9869ZM39.8702 37.2771L41.8809 30.0951H34.1242L32.1136 37.2771H39.8702Z" fill="#CCCCE8"/>
<path d="M36.4268 31.6025H39.1674V44.5305H36.4268V31.6025Z" fill="#000091"/>
<path d="M45.7686 44.8754C42.58 44.8754 40.8906 42.7207 40.8906 40.1867C40.8906 37.67 42.4593 35.498 45.4066 35.498C47.8713 35.498 49.492 37.1354 49.492 39.4974C49.492 40.0834 49.406 40.6347 49.3193 40.9454H43.7C43.924 41.9454 44.6653 42.428 45.82 42.428C46.63 42.428 47.3026 42.1007 47.6986 41.6007L49.6293 43.1347C48.8026 44.2207 47.4406 44.8754 45.7686 44.8754ZM43.804 38.9287H46.8033C46.7686 38.36 46.3553 37.7567 45.4073 37.7567C44.5966 37.7567 44.0626 38.084 43.804 38.9287Z" fill="#000091"/>
<path d="M57.1621 41.548C57.6275 42.1514 58.2135 42.6687 58.9895 42.6687C59.4895 42.6687 59.7308 42.4447 59.7308 42.1C59.7308 40.9107 55.8355 41.4794 55.8355 38.342C55.8355 36.6874 57.2315 35.498 59.1448 35.498C60.5234 35.498 61.8341 36.17 62.4888 37.0147L60.6961 38.652C60.2821 38.1694 59.7654 37.704 59.1448 37.704C58.6621 37.704 58.4381 37.9107 58.4381 38.204C58.4381 39.3247 62.3335 38.7727 62.3335 41.91C62.2988 43.8754 60.6961 44.8747 59.0241 44.8747C57.3521 44.8747 56.2488 44.2194 55.3701 43.22L57.1621 41.548Z" fill="#000091"/>
<path d="M68.4175 44.8754C65.2289 44.8754 63.5396 42.7207 63.5396 40.1867C63.5396 37.67 65.1082 35.498 68.0555 35.498C70.5202 35.498 72.1409 37.1354 72.1409 39.4974C72.1409 40.0834 72.0549 40.6347 71.9682 40.9454H66.3489C66.5729 41.9454 67.3142 42.428 68.4689 42.428C69.2789 42.428 69.9515 42.1007 70.3475 41.6007L72.2782 43.1347C71.4516 44.2207 70.0895 44.8754 68.4175 44.8754ZM66.4529 38.9287H69.4522C69.4176 38.36 69.0042 37.7567 68.0562 37.7567C67.2456 37.7567 66.7115 38.084 66.4529 38.9287Z" fill="#000091"/>
<path d="M74.0021 35.8426H76.7428V36.5493C77.2775 36.0493 77.9495 35.6699 78.8455 35.6699C79.1555 35.6699 79.4315 35.7219 79.6381 35.7906V38.6693C79.3448 38.5999 79.0175 38.5486 78.5695 38.5486C77.5695 38.5486 76.9148 39.1346 76.7421 39.4279V44.5299H74.0015V35.8426H74.0021Z" fill="#000091"/>
<path d="M83.3613 35.8428L85.2227 41.2381L87.0673 35.8428H89.9973L87.0153 44.5301H83.4127L80.4307 35.8428H83.3613Z" fill="#000091"/>
<path d="M90.7046 33.1537C90.7046 32.223 91.4973 31.4297 92.4453 31.4297C93.3586 31.4297 94.1519 32.2224 94.1519 33.1537C94.1519 34.0844 93.3593 34.8944 92.4453 34.8944C91.4973 34.895 90.7046 34.085 90.7046 33.1537ZM91.0493 35.843H93.7899V44.5304H91.0493V35.843Z" fill="#000091"/>
<path d="M101.873 41.48L104.045 43.1347C103.235 44.2034 101.942 44.8754 100.339 44.8754C97.2714 44.8754 95.5127 42.7207 95.5127 40.1867C95.5127 37.6527 97.2707 35.498 100.339 35.498C101.942 35.498 103.235 36.17 104.045 37.2387L101.873 38.8934C101.563 38.4281 101.046 38.066 100.305 38.066C99.184 38.066 98.3567 38.9107 98.3567 40.186C98.3567 41.4787 99.184 42.3061 100.356 42.3061C101.029 42.3074 101.563 41.9454 101.873 41.48Z" fill="#000091"/>
<path d="M109.406 44.8754C106.218 44.8754 104.528 42.7207 104.528 40.1867C104.528 37.67 106.097 35.498 109.044 35.498C111.509 35.498 113.13 37.1354 113.13 39.4974C113.13 40.0834 113.044 40.6347 112.957 40.9454H107.338C107.562 41.9454 108.303 42.428 109.458 42.428C110.268 42.428 110.94 42.1007 111.336 41.6007L113.267 43.1347C112.44 44.2207 111.078 44.8754 109.406 44.8754ZM107.442 38.9287H110.441C110.406 38.36 109.993 37.7567 109.045 37.7567C108.234 37.7567 107.7 38.084 107.442 38.9287Z" fill="#000091"/>
<path d="M36.541 50.5224H39.2817V50.9191C39.9023 50.4364 40.6777 50.1777 41.695 50.1777C44.4703 50.1777 46.073 52.3324 46.073 54.8664C46.073 57.4004 44.4697 59.5551 41.695 59.5551C40.6783 59.5551 39.9023 59.2964 39.2817 58.8137V63.4504H36.541V50.5224ZM41.2983 56.9864C42.505 56.9864 43.2463 56.1417 43.2463 54.8664C43.2463 53.5911 42.505 52.7464 41.2983 52.7464C40.419 52.7464 39.8157 53.1257 39.299 53.8324L39.2817 53.8151V55.9177L39.299 55.9004C39.8157 56.6071 40.419 56.9864 41.2983 56.9864Z" fill="#000091"/>
<path d="M53.2778 50.5225H56.0358V55.2798C56.0358 57.8825 54.4844 59.5545 51.8124 59.5545C49.1064 59.5545 47.6064 57.8825 47.6064 55.2798V50.5225H50.3644V55.4351C50.3644 56.3485 50.8124 56.9865 51.8298 56.9865C52.8124 56.9865 53.2778 56.3485 53.2778 55.4351V50.5225Z" fill="#000091"/>
<path d="M63.2575 59.5542C62.2408 59.5542 61.4648 59.2956 60.8442 58.8129V59.2096H58.1035V46.2822H60.8442V50.9189C61.4648 50.4362 62.2402 50.1776 63.2575 50.1776C66.0328 50.1776 67.6355 52.3322 67.6355 54.8662C67.6355 57.3996 66.0328 59.5542 63.2575 59.5542ZM62.8608 56.9862C64.0675 56.9862 64.8088 56.1416 64.8088 54.8662C64.8088 53.5909 64.0675 52.7462 62.8608 52.7462C61.9815 52.7462 61.3782 53.1256 60.8615 53.8322L60.8442 53.8149V55.9176L60.8615 55.9002C61.3788 56.6069 61.9822 56.9862 62.8608 56.9862Z" fill="#000091"/>
<path d="M69.3423 46.2822H72.083V59.2102H69.3423V46.2822Z" fill="#000091"/>
<path d="M73.9785 47.8334C73.9785 46.9027 74.7712 46.1094 75.7192 46.1094C76.6325 46.1094 77.4258 46.902 77.4258 47.8334C77.4258 48.764 76.6332 49.574 75.7192 49.574C74.7718 49.5747 73.9785 48.7647 73.9785 47.8334ZM74.3232 50.5227H77.0638V59.21H74.3232V50.5227Z" fill="#000091"/>
<path d="M85.1478 56.1597L87.3198 57.8144C86.5098 58.8831 85.2164 59.5551 83.6138 59.5551C80.5458 59.5551 78.7871 57.4004 78.7871 54.8664C78.7871 52.3324 80.5451 50.1777 83.6138 50.1777C85.2164 50.1777 86.5098 50.8497 87.3198 51.9184L85.1478 53.5731C84.8378 53.1077 84.3204 52.7457 83.5791 52.7457C82.4584 52.7457 81.6311 53.5904 81.6311 54.8657C81.6311 56.1584 82.4584 56.9857 83.6304 56.9857C84.3031 56.9871 84.8378 56.6251 85.1478 56.1597Z" fill="#000091"/>
<path d="M87.7466 58.5878C87.7466 58.2091 88.0712 57.8838 88.4639 57.8838C88.8426 57.8838 89.1746 58.2085 89.1746 58.5878C89.1746 58.9731 88.8432 59.2985 88.4639 59.2985C88.0712 59.2978 87.7466 58.9731 87.7466 58.5878Z" fill="#E30613"/>
<path d="M90.0671 58.9797C89.9451 58.831 89.8778 58.655 89.8778 58.4857C89.8778 58.2084 89.9724 57.9917 90.2298 57.7957C89.9324 57.5724 89.7764 57.241 89.7764 56.8624C89.7764 56.1857 90.2838 55.665 91.1771 55.665C91.4544 55.665 91.6978 55.7124 91.8944 55.8004H93.1191V56.7004H92.5844C92.5911 56.7544 92.5911 56.8084 92.5911 56.863C92.5911 57.5464 92.0904 58.067 91.1771 58.067C91.1098 58.067 91.0484 58.067 90.9878 58.0604C90.9471 58.101 90.9271 58.1484 90.9271 58.1957C90.9271 58.3177 91.0018 58.3577 91.1098 58.3577H91.8878C92.7131 58.3577 93.2138 58.845 93.2138 59.4944C93.2138 60.313 92.5438 60.9017 91.4004 60.9017C90.2504 60.9017 89.6211 60.5364 89.6211 59.7924C89.6204 59.4604 89.7831 59.1897 90.0671 58.9797ZM91.3864 60.0557C91.9344 60.0557 92.1578 59.8664 92.1578 59.609C92.1578 59.4064 92.0224 59.271 91.7518 59.271H90.8178C90.6891 59.3524 90.6218 59.467 90.6218 59.6297C90.6218 59.893 90.8451 60.0557 91.3864 60.0557ZM91.6364 56.8624C91.6364 56.585 91.4471 56.4497 91.1831 56.4497C90.9191 56.4497 90.7364 56.5917 90.7364 56.8624C90.7364 57.1397 90.9191 57.2817 91.1831 57.2817C91.4471 57.2817 91.6364 57.1397 91.6364 56.8624Z" fill="#E30613"/>
<path d="M97.1977 57.505C97.1977 58.547 96.433 59.345 95.317 59.345C94.1937 59.345 93.4297 58.547 93.4297 57.505C93.4297 56.463 94.1944 55.665 95.317 55.665C96.433 55.6644 97.1977 56.463 97.1977 57.505ZM96.0877 57.505C96.0877 56.991 95.7564 56.673 95.323 56.673C94.8764 56.673 94.545 56.9977 94.545 57.505C94.545 58.0124 94.8764 58.337 95.323 58.337C95.7564 58.337 96.0877 58.0057 96.0877 57.505Z" fill="#E30613"/>
<path d="M100.134 55.7998H101.216V57.6671C101.216 58.6885 100.608 59.3451 99.5589 59.3451C98.4969 59.3451 97.9082 58.6891 97.9082 57.6671V55.7998H98.9909V57.7278C98.9909 58.0865 99.1669 58.3365 99.5662 58.3365C99.9515 58.3365 100.134 58.0858 100.134 57.7278V55.7998H100.134Z" fill="#E30613"/>
<path d="M102.879 55.7998L103.61 57.9171L104.334 55.7998H105.484L104.313 59.2098H102.899L101.729 55.7998H102.879Z" fill="#E30613"/>
<path d="M105.424 58.5878C105.424 58.2091 105.748 57.8838 106.141 57.8838C106.52 57.8838 106.852 58.2085 106.852 58.5878C106.852 58.9731 106.52 59.2985 106.141 59.2985C105.748 59.2978 105.424 58.9731 105.424 58.5878Z" fill="#E30613"/>
<path d="M107.825 55.8004V55.4891C107.825 54.7584 108.346 54.1357 109.246 54.1357C109.631 54.1357 109.97 54.2304 110.213 54.4337L109.557 55.2184C109.489 55.1304 109.394 55.0964 109.259 55.0964C109.056 55.0964 108.907 55.2591 108.907 55.4551V55.8004H109.84V56.7744H108.907V59.2097H107.824V56.7744H107.188V55.8004H107.825Z" fill="#E30613"/>
<path d="M110.457 55.8004H111.533V56.0778C111.743 55.8818 112.006 55.7324 112.358 55.7324C112.48 55.7324 112.588 55.7524 112.669 55.7798V56.9098C112.555 56.8824 112.426 56.8624 112.25 56.8624C111.857 56.8624 111.601 57.0924 111.533 57.2078V59.2104H110.457V55.8004Z" fill="#E30613"/>
<path d="M32.9407 26.6197L35.1127 28.2744C34.3027 29.343 33.0101 30.015 31.4067 30.015C28.3387 30.015 26.5801 27.8604 26.5801 25.3264C26.5801 22.7924 28.3381 20.6377 31.4067 20.6377C33.0101 20.6377 34.3027 21.3097 35.1127 22.3784L32.9407 24.033C32.6307 23.5677 32.1134 23.2057 31.3721 23.2057C30.2514 23.2057 29.4241 24.0504 29.4241 25.3257C29.4241 26.6184 30.2514 27.4457 31.4234 27.4457C32.0961 27.447 32.6301 27.085 32.9407 26.6197Z" fill="#000091"/>
<path d="M36.4565 16.7422H39.1972V21.4649C39.7659 20.9822 40.4899 20.6375 41.5072 20.6375C43.3519 20.6375 44.8685 21.9302 44.8685 24.5675V29.6695H42.1105V24.6882C42.1105 23.8089 41.6452 23.2055 40.7659 23.2055C39.8005 23.2055 39.3699 23.9642 39.1972 24.2569V29.6695H36.4565V16.7422Z" fill="#000091"/>
<path d="M56.1067 25.3264C56.1067 27.981 54.1587 30.015 51.3147 30.015C48.4534 30.015 46.5054 27.981 46.5054 25.3264C46.5054 22.6717 48.4534 20.6377 51.3147 20.6377C54.1587 20.6384 56.1067 22.6724 56.1067 25.3264ZM53.28 25.3264C53.28 24.0164 52.4354 23.2064 51.332 23.2064C50.1947 23.2064 49.35 24.0337 49.35 25.3264C49.35 26.619 50.1947 27.4464 51.332 27.4464C52.4354 27.447 53.28 26.6024 53.28 25.3264Z" fill="#000091"/>
<path d="M57.4854 18.2933C57.4854 17.3627 58.278 16.5693 59.226 16.5693C60.1394 16.5693 60.9327 17.362 60.9327 18.2933C60.9327 19.224 60.14 20.034 59.226 20.034C58.2787 20.0347 57.4854 19.224 57.4854 18.2933ZM57.83 20.9827H60.5707V29.67H57.83V20.9827Z" fill="#000091"/>
<path d="M63.7939 26.6877C64.2593 27.291 64.8453 27.8084 65.6213 27.8084C66.1213 27.8084 66.3626 27.5844 66.3626 27.2397C66.3626 26.0504 62.4673 26.619 62.4673 23.4817C62.4673 21.827 63.8633 20.6377 65.7766 20.6377C67.1553 20.6377 68.466 21.3097 69.1206 22.1544L67.3279 23.7917C66.9139 23.309 66.3973 22.8437 65.7766 22.8437C65.294 22.8437 65.07 23.0504 65.07 23.3437C65.07 24.4644 68.9653 23.9124 68.9653 27.0497C68.9306 29.015 67.328 30.0144 65.656 30.0144C63.984 30.0144 62.8806 29.3597 62.002 28.3597L63.7939 26.6877Z" fill="#000091"/>
<path d="M70.3442 18.2933C70.3442 17.3627 71.1369 16.5693 72.0849 16.5693C72.9982 16.5693 73.7916 17.362 73.7916 18.2933C73.7916 19.224 72.9989 20.034 72.0849 20.034C71.1369 20.0347 70.3442 19.224 70.3442 18.2933ZM70.6889 20.9827H73.4296V29.67H70.6889V20.9827Z" fill="#000091"/>
<path d="M75.6701 20.9822H78.4108V21.6889C78.9448 21.1889 79.6174 20.8096 80.5134 20.8096C80.8234 20.8096 81.0994 20.8616 81.3061 20.9302V23.8089C81.0134 23.7402 80.6854 23.6882 80.2374 23.6882C79.2374 23.6882 78.5828 24.2742 78.4101 24.5676V29.6696H75.6694V20.9822H75.6701Z" fill="#000091"/>
</svg>
