<svg width="128" height="128" viewBox="0 0 128 128" fill="none" xmlns="http://www.w3.org/2000/svg">
<path d="M67.48 117.93C50.45 118.8 40.62 109 45.33 103.73C45.33 103.73 22.18 102.9 21.17 104.67C20.16 106.44 23.36 111.48 25.52 113.48C27.68 115.48 32.62 117.95 32.62 117.95L67.49 117.93H67.48Z" fill="#231F20"/>
<path d="M85.26 117.45C85.26 117.45 94.26 112.24 92.5 105.34C91.1 99.86 96.21 104.25 96.83 106.14C97.45 108.03 90.6 117.98 90.6 117.98L85.27 117.44L85.26 117.45Z" fill="#231F20"/>
<path d="M68.54 51.1301C61.61 54.4401 55.88 51.4301 54.09 48.3001C50.97 42.8201 55.68 37.2801 58.3 36.0601C58.3 36.0601 48.54 36.5101 46.78 41.1801C45.02 45.8501 47.41 50.3001 49.21 51.9101C51.01 53.5201 52.9 57.1201 57.28 57.2901C61.66 57.4601 66.67 54.9901 66.67 54.9901L68.54 51.1201V51.1301Z" fill="#231F20"/>
<path d="M43.09 99.18C28.6 77.09 44.87 55.5 48.19 55.5C49.73 55.5 54.18 58.52 57.35 59.19L57.28 57.3C57.28 57.3 46.03 51.81 45.68 49.66C45.33 47.51 37.67 58.32 36.46 63.94C35.25 69.57 33.17 74.61 34.58 82.91C35.99 91.21 43.08 99.18 43.08 99.18H43.09Z" fill="#231F20"/>
<path d="M81.5 103.73C81.5 103.57 78.52 102.51 79.41 98.49C80.23 94.78 69.76 95.64 69.82 98C69.88 100.36 70.66 103.53 70.66 103.53L81.5 103.72V103.73Z" fill="#231F20"/>
<path d="M91.38 63.34C91.38 63.34 93.16 58.64 95.09 57.3C97.02 55.96 93.24 55.05 93.24 55.05L89.05 61.5401L91.39 63.3301L91.38 63.34Z" fill="#231F20"/>
<path d="M36.46 20.34C36.46 20.34 41.8 18.46 40.44 16.96C39.93 16.4 41.8 20.08 41.8 20.08L40.4 22.19L36.46 20.34Z" fill="#231F20"/>
<path d="M41.8 22.1899C41.8 22.1899 37.61 27.4199 38.6 29.8799C40.87 35.5299 49.66 38.3199 49.66 38.3199L46.16 40.1599C46.16 40.1599 36.79 32.5999 36.46 30.0399C36.13 27.4799 41.8 22.1999 41.8 22.1999V22.1899Z" fill="#231F20"/>
<path d="M51.81 72.8C51.38 74.91 51.21 77.08 51.41 79.27C51.45 79.67 51.51 80.06 51.57 80.46C51.65 80.85 51.73 81.24 51.79 81.64C52.29 84.41 53.09 87.19 54.45 89.73C55.05 90.85 55.81 91.9 56.66 92.83C57.2 93.43 57.8 93.97 58.34 94.58C58.92 95.14 59.49 95.73 60.08 96.33C60.44 96.72 60.27 96.88 59.72 96.9C59.44 96.91 59.06 96.9 58.61 96.84C58.17 96.77 57.71 96.58 57.26 96.32C56.48 95.83 55.7 95.29 55.1 94.59C54.45 93.94 53.88 93.21 53.33 92.48C52.24 91 51.4 89.35 50.78 87.63C50.03 85.59 49.3 83.44 48.92 81.25C48.52 78.84 48.49 76.37 48.79 73.95C48.98 72.46 49.28 71 49.7 69.57C50.31 67.4 51.25 65.34 52.29 63.37C53.1 61.84 53.9 60.31 54.94 58.89C55.18 58.58 55.37 58.25 55.64 57.96C56.11 57.4 56.56 57.18 56.91 57.06C57.27 56.96 57.56 57.01 57.9 57.17C58.05 57.24 58.22 57.3 58.34 57.39C58.76 57.69 58.64 58.41 58.17 59.25C56.62 61.59 55.03 63.97 53.84 66.63C52.97 68.6 52.24 70.67 51.87 72.81H51.8L51.81 72.8Z" fill="#231F20"/>
<path d="M36.51 70.66C35.84 73.84 35.58 77.12 35.83 80.37C35.89 80.96 35.97 81.55 36.05 82.14C36.16 82.72 36.29 83.3 36.39 83.88C37.14 87.96 38.84 91.95 41.23 95.45C42.31 96.99 43.6 98.39 45.02 99.59C46.88 101.11 48.88 102.25 50.9 103.65C51.49 104.21 51.4 104.26 50.61 104.47C50.22 104.58 49.66 104.67 49 104.68C48.35 104.68 47.57 104.63 46.89 104.26C45.61 103.72 44.48 102.92 43.44 102.04C42.38 101.17 41.43 100.2 40.53 99.19C38.76 97.14 37.33 94.83 36.26 92.37C34.99 89.45 33.73 86.33 33.22 83.09C32.64 79.54 32.67 75.94 33.14 72.44C33.47 70.29 33.9 68.15 34.54 66.07C35.48 62.91 36.84 59.89 38.44 57.05C39.69 54.84 41.03 52.71 42.64 50.72C43.02 50.3 43.37 49.87 43.79 49.49C45.35 48.06 46.12 47.93 46.89 48.22C47.07 48.29 47.27 48.34 47.41 48.44C47.87 48.75 47.56 49.68 46.65 50.76C44.05 54.03 41.47 57.46 39.63 61.44C38.25 64.37 37.19 67.49 36.58 70.7H36.5L36.51 70.66Z" fill="#231F20"/>
<path d="M33.2001 18.69C33.1801 18.54 33.2801 18.34 33.3101 18.17C33.3901 17.99 33.5601 17.82 33.6801 17.65L34.5301 16.65L35.5301 15.61C35.6501 15.48 35.7601 15.35 35.8701 15.21C35.9901 15.06 36.0501 14.99 36.2901 14.73C36.6101 14.4 36.9801 14.14 37.2901 13.89C37.6101 13.65 37.9001 13.36 38.2101 13.33C38.6901 13.76 39.1001 14.19 39.4901 14.59C39.8401 15.03 40.2201 15.52 40.3701 15.74C40.7001 16.18 40.9901 16.63 41.2901 17.05C41.7201 17.55 42.1901 17.88 42.6201 18.42C42.7601 18.58 42.7001 18.69 42.4401 18.8C42.3101 18.85 42.1201 18.92 41.9101 18.94C41.6801 18.99 41.4401 18.96 41.2401 18.85C40.8901 18.65 40.5601 18.43 40.2601 18.19C39.9501 17.97 39.6001 17.78 39.3201 17.57C39.0901 17.33 38.8301 17.06 38.6701 16.86C38.6701 16.81 38.6701 16.7 38.6201 16.56C38.5901 16.48 38.5501 16.43 38.5001 16.34C38.4101 16.2 38.3401 16.37 38.2701 16.42L38.1701 16.54L37.9601 16.77L37.0001 17.77L36.5601 18.24L36.3201 18.46C36.1501 18.64 35.7201 18.93 36.0801 19.11C36.2401 19.25 36.4201 19.39 36.6201 19.52C36.6901 19.56 36.9001 19.67 37.1001 19.76C37.2901 19.85 37.4901 19.92 37.6901 20C38.3201 20.22 39.0101 20.28 39.7201 20.44C39.8801 20.48 40.0401 20.48 40.2001 20.54C40.7801 20.75 40.9001 21.07 40.5801 21.79C40.5101 21.95 40.4401 22.12 40.3501 22.27C40.0301 22.78 39.6301 23.11 39.2701 23.1C38.1801 23.05 37.0001 22.62 35.7701 21.98L35.5701 21.87C35.4601 21.82 35.3601 21.76 35.2701 21.69L34.6901 21.33C34.3101 21.08 33.9401 20.84 33.6301 20.56L33.3901 20.36C33.3201 20.29 33.2801 20.21 33.2201 20.13L33.0601 19.9C33.0201 19.82 33.0101 19.74 32.9901 19.66L32.9601 19.54L32.9401 19.48V19.45L32.9301 19.43C33.5301 19.32 33.1001 19.4 33.2301 19.37L33.2101 19.14L33.1701 18.67H33.2401L33.2001 18.69Z" fill="#231F20"/>
<path d="M97.61 60.7899C96.96 61.5099 96.31 62.1199 95.66 62.7299C95.42 62.9499 95.24 63.2299 95 63.4399L94.34 63.9899L93.86 64.3799C93.68 64.5299 93.49 64.6199 93.32 64.7299C93.14 64.8299 92.94 64.8699 92.78 64.9799C92.61 64.9799 92.42 64.8899 92.22 64.8299C91.84 64.6799 91.41 64.3999 91.09 64.1199L90.88 63.9499L90.73 63.8499C90.63 63.7899 90.54 63.6999 90.44 63.6399C90.24 63.4999 90.04 63.3699 89.84 63.2499C89.31 62.9499 88.8 62.6499 88.27 62.3299C88.11 62.2299 88.15 62.0899 88.35 61.9299C88.55 61.7699 88.96 61.5499 89.38 61.5599C90.11 61.5899 90.81 61.6899 91.47 61.8599C91.63 61.8899 91.82 61.9799 91.91 62.0299C91.93 62.0599 91.95 62.0899 91.96 62.1299C91.98 62.1999 92.03 62.2999 92.13 62.4299C92.19 62.4599 92.24 62.4499 92.29 62.4299C92.32 62.4199 92.34 62.3999 92.37 62.3799C92.39 62.3599 92.41 62.3499 92.49 62.2599C92.75 61.9799 92.99 61.6799 93.26 61.4099C93.85 60.8099 94.45 60.2099 95 59.5899C95.17 59.3999 95.33 59.2099 95.48 59.0199C95.59 58.8999 95.67 58.8099 95.75 58.6899C95.8 58.5999 95.86 58.5099 95.85 58.3999C95.84 58.2399 95.78 58.0799 95.7 57.9199C95.6 57.7299 95.42 57.4599 95.24 57.2499C94.86 56.7999 94.32 56.4899 93.89 56.1099C93.79 56.0299 93.68 55.9699 93.59 55.8799C93.46 55.6899 93.41 55.5299 93.45 55.3499C93.51 55.1499 93.62 54.9499 93.76 54.6999C93.83 54.5799 93.87 54.4599 93.93 54.3499C94.02 54.1699 94.15 54.0299 94.39 53.9599C94.62 53.8799 94.92 53.8099 95.15 53.8899C95.53 53.9599 95.82 54.0999 96.1 54.2599C96.38 54.4299 96.68 54.5799 96.89 54.8099C97.35 55.2599 97.74 55.7499 98.13 56.4099C98.46 56.9799 98.7 57.5899 98.78 58.2199C98.74 58.4699 98.73 58.7299 98.67 58.9699L98.59 59.3399C98.54 59.4599 98.47 59.5699 98.42 59.6899C98.22 60.1499 97.81 60.6599 97.69 60.8299L97.63 60.7899H97.61Z" fill="#231F20"/>
<path d="M91.83 50.24C88.86 46.97 85.43 43.87 82.03 40.84C80.78 39.74 79.47 38.7 78.21 37.61C73.76 33.77 69.24 29.99 64.6 26.36C62.54 24.75 60.41 23.22 58.27 21.76C56.89 20.83 55.5 19.93 54.15 18.97L52.11 17.57C51.76 17.36 51.44 17.1 51.12 16.84C50.8 16.59 50.45 16.37 50.14 16.09C49.39 15.32 49.42 15.49 50.41 15.48C50.9 15.48 51.59 15.55 52.41 15.68C53.21 15.84 54.07 16.19 54.93 16.65C55.69 17.07 56.45 17.5 57.19 17.94C57.94 18.38 58.62 18.9 59.34 19.38C60.75 20.37 62.14 21.37 63.51 22.41C66.25 24.48 68.93 26.63 71.55 28.87C74.68 31.55 78.1 34.14 81.33 36.86C84.86 39.87 88.35 42.93 91.69 46.2C92.47 46.96 93.23 47.75 93.97 48.57C94.33 49 94.71 49.4 95.05 49.88C95.23 50.1 95.41 50.34 95.57 50.63C95.78 50.91 95.9 51.33 96.01 51.7C96.04 52.24 96.01 52.71 95.89 53.1C95.81 53.53 95.65 53.88 95.51 54.24C94.54 56.4 93.16 58.12 91.76 59.81C91.06 60.65 90.33 61.47 89.59 62.27L89.03 62.87L88.75 63.17L88.37 63.55C88.13 63.82 87.81 64.03 87.51 64.23C87.14 64.29 86.78 64.41 86.4 64.4C85.34 64.42 84.52 64.12 83.68 63.89C82.84 63.65 82.04 63.37 81.25 63.06C79.67 62.45 78.14 61.78 76.64 61.04C75.98 60.72 75.32 60.41 74.67 60.05C73.47 59.37 72.71 58.86 72.27 58.36C72.06 58.09 71.92 57.86 71.83 57.6C71.75 57.34 71.73 57.07 71.73 56.82C71.73 56.59 71.68 56.35 71.7 56.18C71.74 55.89 72.05 55.82 72.65 55.79C73.26 55.74 74 55.97 74.88 56.38C77.49 57.6 80.19 58.86 82.89 59.92C83.57 60.18 84.23 60.46 84.87 60.68C85.2 60.81 85.5 60.88 85.8 60.98C85.96 61.04 86.07 61.04 86.21 61.08C86.35 61.1 86.48 61.15 86.54 61.21C86.59 61.19 86.56 61.23 86.57 61.21C86.57 61.21 86.57 61.21 86.6 61.17L86.8 60.96C87.32 60.43 87.82 59.88 88.33 59.32C89.45 58.08 90.52 56.78 91.46 55.47C91.93 54.82 92.38 54.15 92.72 53.52C92.82 53.36 92.88 53.2 92.95 53.05C93.01 52.91 93.11 52.73 93.13 52.61C93.16 52.49 93.2 52.37 93.24 52.25C93.24 52.17 93.24 52.16 93.27 52.16C93.24 52.14 93.29 52.18 93.2 52.04C93.14 51.9 92.97 51.69 92.83 51.5C92.54 51.11 92.17 50.7 91.81 50.3L91.86 50.25L91.83 50.24Z" fill="#231F20"/>
<path d="M36.04 32.64L35.78 32.36C35.64 32.21 35.51 32.06 35.38 31.92C35.18 31.6 34.96 31.28 34.81 30.94C34.81 30.64 34.73 30.35 34.77 30.06L34.86 29.18C34.87 29.02 34.92 28.91 34.96 28.79L35.05 28.51C35.11 28.33 35.17 28.14 35.24 27.98C35.51 27.3 35.81 26.67 36.12 26.05C36.43 25.46 36.66 24.84 37 24.28C38.2 22.29 39.59 20.45 41.13 18.73C41.48 18.36 41.8 17.96 42.15 17.58L43.21 16.46C44.12 15.52 45.19 14.59 46.61 14.36C47.05 14.3 47.12 14.59 47.07 15.17C47.04 15.8 46.9 16.57 46.52 17.13C45.01 18.85 43.36 20.52 41.66 22.37C40.64 23.47 39.97 24.89 39.25 26.22C38.88 26.94 38.51 27.66 38.2 28.39C38.05 28.75 37.9 29.12 37.8 29.46C37.7 29.72 37.67 29.83 37.66 30.05L37.69 30.1C37.75 30.2 37.83 30.3 37.9 30.39C38.02 30.54 38.23 30.76 38.4 30.94C38.76 31.32 39.13 31.71 39.51 32.08C40.65 33.22 41.8 34.38 43.02 35.42C43.97 36.23 45.01 36.9 46.02 37.62C46.24 37.78 46.47 37.92 46.69 38.09C47.48 38.72 47.6 39.07 47.29 39.77C47.22 39.93 47.16 40.1 47.07 40.24C46.78 40.73 46.15 40.82 45.48 40.46C43.47 39.39 41.66 37.9 39.88 36.35C38.56 35.19 37.3 33.99 36.01 32.7L36.06 32.65L36.04 32.64Z" fill="#231F20"/>
<path d="M76.39 94.78C78.26 94.75 80.14 94.78 82.03 94.84C82.72 94.87 83.41 94.81 84.1 94.87C85.33 94.98 86.55 95.12 87.81 95.39C88.12 95.46 88.44 95.54 88.76 95.64C88.92 95.68 89.08 95.74 89.25 95.8C89.41 95.85 89.57 95.91 89.8 96.02C90.22 96.2 90.64 96.42 90.95 96.74C91.12 96.88 91.25 97.06 91.38 97.24C91.5 97.42 91.54 97.65 91.6 97.85C91.67 98.23 91.66 98.64 91.65 99.03C91.65 99.25 91.62 99.39 91.61 99.53L91.57 99.95C91.52 100.51 91.42 101.05 91.33 101.6C91.2 102.3 91.07 103 90.84 103.7C90.56 104.37 90.15 105.09 89.29 105.52C88.65 105.69 88.79 105.48 88.68 104.95C88.61 104.67 88.49 104.37 88.3 103.99C88.15 103.66 88.05 103.32 88.05 102.99C88.29 101.88 88.44 100.59 88.6 99.41C88.64 99 88.66 99.13 88.68 99.07C88.71 99.04 88.74 98.99 88.73 98.94C88.73 98.89 88.71 98.83 88.66 98.77C88.68 98.75 88.5 98.68 88.39 98.63C88.27 98.57 88.13 98.52 87.99 98.47C86.62 97.95 84.9 97.98 83.27 97.9C81.46 97.8 79.62 97.77 77.78 97.78C76.65 97.78 75.51 97.81 74.38 97.87L72.8 97.95L71.42 98.05C71 98.04 70.75 98.45 70.72 98.82C70.7 98.91 70.7 99.01 70.7 99.1C70.7 99.23 70.7 99.37 70.72 99.52C70.74 99.81 70.8 100.1 70.86 100.4C71 100.99 71.2 101.57 71.41 102.14L71.73 102.87C72.06 103.8 71.94 104.15 71.51 104.65C71.41 104.76 71.32 104.9 71.21 105C70.88 105.34 70.24 105.14 69.63 104.42C68.82 103.33 68.36 102.06 68.05 100.66C67.99 100.3 67.93 99.94 67.91 99.54C67.89 99.35 67.89 99.15 67.91 98.92C67.91 98.61 67.92 98.29 68.01 98C68.08 97.7 68.13 97.39 68.27 97.13L68.46 96.72C68.54 96.59 68.63 96.48 68.72 96.35C69.05 95.84 69.61 95.56 70.15 95.31L70.48 95.19C71.56 95.03 71.75 95.04 72.27 94.99L73.64 94.89L76.38 94.74V94.82L76.39 94.78Z" fill="#231F20"/>
<path d="M58.16 34.08C58.67 34.08 59.17 34.16 59.67 34.23C60.17 34.28 60.66 34.39 61.15 34.5C61.63 34.59 62.13 34.76 62.63 34.95C63.13 35.14 63.64 35.29 64.08 35.57C65.98 36.51 67.53 37.98 68.68 39.64C69.56 40.83 70.23 42.16 70.69 43.56C71.42 46.05 71.41 48.77 70.51 51.22C69.63 53.68 67.79 55.72 65.6 56.91C64.67 57.52 63.58 57.89 62.53 58.16C61.47 58.42 60.38 58.56 59.31 58.59C57.93 58.63 56.52 58.45 55.19 57.99C54.52 57.77 53.88 57.44 53.28 57.07C52.68 56.67 52.2 56.12 51.8 55.54C51.37 54.76 51.54 54.84 52.25 55.08C52.43 55.14 52.63 55.21 52.88 55.25C53.12 55.3 53.38 55.37 53.68 55.39C54.23 55.5 54.82 55.64 55.44 55.8C56.54 56.13 57.73 56.15 58.9 56.14C60.07 56.1 61.24 55.9 62.32 55.55C62.86 55.36 63.37 55.17 63.85 54.88L64.58 54.45L64.95 54.24C65.07 54.16 65.16 54.06 65.27 53.98C65.69 53.62 66.16 53.3 66.49 52.85C66.67 52.64 66.87 52.44 67.04 52.22L67.48 51.5C68.13 50.33 68.52 48.91 68.41 47.46C68.33 46.02 67.98 44.58 67.37 43.26C66.01 40.37 63.46 38.03 60.21 37.5C58.2 37.06 56.1 37.08 54.14 37.6C52.66 38 51.26 38.71 50.17 39.75C49.07 40.78 48.3 42.12 47.97 43.59C47.41 45.9 48.12 48.24 49.43 50.04C49.71 50.44 50.06 50.78 50.39 51.14C51.02 51.8 51.48 52.16 51.74 52.53C52.01 52.89 52.1 53.23 52.11 53.67C52.11 53.87 52.15 54.1 52.13 54.28C52.09 54.6 51.83 54.77 51.34 54.77C50.86 54.77 50.17 54.57 49.42 54.09C47.21 52.64 45.44 50.22 44.89 47.34C44.75 46.62 44.68 45.89 44.7 45.15C44.7 44.78 44.76 44.42 44.79 44.06C44.82 43.7 44.86 43.33 44.96 42.97C45.24 41.52 45.9 40.1 46.79 38.89C48.12 37.07 49.99 35.72 51.99 34.97C53.99 34.19 56.1 33.91 58.15 33.98V34.06L58.16 34.08Z" fill="#231F20"/>
<path d="M33.17 16.83L34.71 15.07C34.9 14.85 35.02 14.6 35.21 14.38C35.89 13.63 36.58 12.9 37.24 12.14C37.56 11.82 37.81 11.46 38.07 11.1C38.38 10.63 38.64 10.12 39.26 9.86001C39.5 9.81001 39.63 9.92001 39.85 10.25C40.05 10.56 40.35 11.09 40.27 11.43C39.82 12.51 39.35 13.58 38.38 14.33C37.84 14.8 37.54 15.47 37.11 16.04C36.64 16.66 36.15 17.28 35.67 17.89C35.37 18.27 35.06 18.64 34.77 19.02C34.33 19.6 33.86 20.16 33.49 20.79C33.2 21.27 33.06 21.84 32.84 22.36C32.79 22.47 32.75 22.59 32.68 22.7C32.43 23.08 32.19 23.1 31.59 22.81C31.45 22.75 31.31 22.69 31.18 22.62C30.74 22.38 30.49 21.99 30.52 21.6C30.54 21.32 30.58 21.04 30.64 20.78C30.72 20.53 30.82 20.29 30.93 20.05C31.15 19.58 31.43 19.13 31.72 18.7C32.15 18.05 32.65 17.44 33.11 16.81L33.17 16.85V16.83Z" fill="#231F20"/>
<path d="M46.03 102.31L63.41 102.53C65.52 102.55 67.64 102.47 69.75 102.49C77.2 102.57 84.64 102.71 92.08 102.66L94.56 102.64L95.91 102.62H96.26L96.72 102.65C97.03 102.67 97.32 102.78 97.6 102.89C98.17 103.12 98.61 103.59 98.84 104.15C99.06 104.71 99.17 105.33 99.1 105.96C99.06 106.58 98.93 107.01 98.81 107.47C98.68 107.91 98.52 108.33 98.35 108.74C97.46 110.82 96.26 112.67 94.83 114.36C93.4 116.01 91.71 117.62 89.43 118.28C88.72 118.46 88.37 118.36 88.36 118.22C88.34 118.05 88.63 117.81 89 117.34C89.38 116.88 89.86 116.27 90.35 115.49C90.87 114.75 91.5 113.95 92.21 113.08C93.48 111.57 94.55 109.82 95.3 108.08C95.47 107.65 95.65 107.21 95.75 106.8C95.87 106.41 95.94 105.89 95.93 105.94C95.95 105.92 95.95 105.87 95.91 105.85L93.01 105.92L89.76 105.9C87.59 105.87 85.42 105.82 83.25 105.74C78.05 105.55 72.65 105.76 67.35 105.74C61.51 105.7 55.68 105.66 49.84 105.62C46.25 105.6 42.65 105.57 39.06 105.55C36.34 105.55 33.62 105.53 30.9 105.52C29.54 105.52 28.18 105.52 26.83 105.53C25.52 105.55 24.22 105.57 22.92 105.59L22.05 105.63L21.64 105.66C21.55 105.64 21.56 105.75 21.58 105.81C21.6 105.88 21.61 105.96 21.63 106.03C21.71 106.31 21.8 106.59 21.91 106.84C21.96 106.97 22.01 107.09 22.07 107.21L22.12 107.31L22.19 107.48L22.34 107.82C23.19 109.59 24.29 111.22 25.61 112.6C26.2 113.2 26.82 113.74 27.49 114.23C27.79 114.48 28.07 114.69 28.35 114.85C28.61 115.04 28.84 115.23 29.06 115.4C29.5 115.71 29.88 115.95 30.16 116.2C30.74 116.7 31.09 117.02 31.32 117.46C31.43 117.65 31.6 117.86 31.65 118.02C31.74 118.29 31.44 118.4 30.75 118.41C30.41 118.41 29.96 118.41 29.44 118.31C28.93 118.19 28.34 118.03 27.7 117.78C27.24 117.56 26.76 117.36 26.32 117.09C25.88 116.81 25.47 116.51 25.04 116.21C24.22 115.57 23.44 114.87 22.73 114.09C21.32 112.53 20.16 110.74 19.3 108.79L18.85 107.73L18.37 106.38C18.12 105.5 18.07 104.62 18.3 104.03L18.42 103.56L18.48 103.31C18.51 103.24 18.61 103.23 18.67 103.18C18.97 103.04 19.2 102.91 19.58 102.76L20.11 102.54L20.37 102.43L20.5 102.37H20.68L22.13 102.32C23.26 102.3 24.4 102.28 25.53 102.25L28.48 102.22C34.32 102.17 40.17 102.22 46.02 102.22V102.3L46.03 102.31Z" fill="#231F20"/>
<path d="M66.9699 119.68L53.6599 119.32C52.0399 119.28 50.4199 119.32 48.8099 119.27L31.7099 118.75C29.1799 118.69 26.6399 118.72 24.1299 118.76C22.5199 118.79 20.8999 118.87 19.2899 118.86C17.6799 118.84 16.0599 118.83 14.4499 118.49C13.4399 118.06 13.5699 118.16 14.4199 117.65C14.8399 117.37 15.4399 117.11 16.1699 116.8C16.8999 116.53 17.7499 116.35 18.6799 116.26C25.2799 115.98 31.8699 116.1 38.5099 116.42C42.4799 116.64 46.6199 116.54 50.6799 116.61L64.0799 116.87C66.8299 116.91 69.5799 116.95 72.3199 116.99C76.4799 117.03 80.6599 117.07 84.7899 116.98C87.9999 116.9 91.1399 116.64 94.3099 116.43C95.0099 116.38 95.6899 116.33 96.3899 116.28C97.0399 116.25 97.5799 116.23 98.0399 116.24C98.4899 116.26 98.8599 116.34 99.1699 116.41C99.7799 116.56 100.14 116.78 100.43 117.11C100.56 117.26 100.74 117.4 100.82 117.55C101.09 118.02 100.04 118.53 98.1299 118.91C92.4599 119.6 86.4499 119.82 80.4299 119.84C75.9599 119.87 71.4599 119.8 66.9799 119.74V119.67L66.9699 119.68Z" fill="#231F20"/>
<path d="M97.75 68.88C97.65 68.74 97.85 68.61 98.21 68.49C98.32 68.45 98.67 68.44 98.72 68.49C98.82 68.56 98.93 68.64 99.01 68.71C99.05 68.76 99.39 69.5 99.49 69.75C99.6 69.99 99.65 70.24 99.68 70.48C99.76 70.98 99.86 71.48 99.96 71.97C99.98 72.08 99.98 72.19 99.96 72.31C99.89 72.71 99.96 73.09 100.07 73.46C100.09 73.52 100.09 73.59 100.18 73.64C100.32 73.72 100.56 74.73 100.53 74.87C100.45 75.23 100.42 75.57 100.38 75.93C100.38 75.98 100.42 76.02 100.33 76.09C100.14 76.24 100.2 76.33 100.2 76.44C100.2 76.59 100.21 76.74 100.17 76.89C100.15 76.97 100.05 77.07 99.96 77.16C99.89 77.24 99.55 77.29 99.51 77.27C99.39 77.23 99.25 77.32 99.12 77.36C99.08 77.37 99.02 77.39 98.98 77.4C98.89 77.42 98.14 76.7 98.13 76.6C98.13 76.58 97.71 75.4 97.65 75.22C97.62 75.15 97.65 75.06 97.68 74.98C97.68 74.94 97.38 73.96 97.38 73.91C97.38 73.7 97.28 73.49 97.44 73.26C97.47 73.21 97.46 73.17 97.44 73.13C97.37 72.77 97.41 72.4 97.42 72.03C97.42 71.84 97.39 71.66 97.38 71.47C97.38 71.44 97.4 71.4 97.41 71.37C97.42 71.33 97.44 71.28 97.44 71.24C97.39 70.8 97.46 70.36 97.37 69.93C97.34 69.83 97.52 69.34 97.52 69.22C97.52 69.16 97.78 68.93 97.74 68.87L97.75 68.88Z" fill="#231F20"/>
<path d="M103.64 61.74C103.47 61.85 103.32 61.6 103.18 61.16C103.14 61.02 103.14 60.6 103.18 60.53C103.28 60.4 103.37 60.28 103.47 60.18C103.53 60.12 104.5 59.76 104.83 59.66C105.15 59.55 105.47 59.51 105.79 59.49L107.76 59.36C107.91 59.36 108.05 59.38 108.2 59.43C108.7 59.61 109.2 59.62 109.7 59.58C109.78 59.58 109.87 59.59 109.95 59.5C110.09 59.35 111.46 59.39 111.63 59.47C112.06 59.65 112.49 59.8 112.91 60.03C112.97 60.06 113.04 60.03 113.09 60.15C113.2 60.41 113.34 60.39 113.47 60.43C113.65 60.48 113.83 60.55 114.01 60.65C114.1 60.7 114.18 60.84 114.26 60.94C114.33 61.04 114.26 61.35 114.23 61.38C114.14 61.47 114.19 61.63 114.19 61.76C114.19 61.8 114.19 61.86 114.18 61.9C114.16 61.96 113.06 62.54 112.95 62.56C112.94 62.56 112.55 62.63 112.13 62.7C111.72 62.72 111.3 62.75 111.21 62.77C111.12 62.79 111.03 62.72 110.94 62.68C110.9 62.66 109.68 62.8 109.63 62.79C109.38 62.75 109.13 62.83 108.88 62.6C108.83 62.56 108.78 62.57 108.73 62.57C108.3 62.59 107.86 62.5 107.43 62.42C107.21 62.38 106.98 62.4 106.76 62.39C106.72 62.39 106.68 62.35 106.64 62.34C106.59 62.32 106.54 62.29 106.49 62.29C105.96 62.29 105.43 62.16 104.9 62.24C104.78 62.25 104.19 62.02 104.05 62.02C103.97 62.02 103.71 61.68 103.64 61.73V61.74Z" fill="#231F20"/>
</svg>
